<svg width="39" height="37" viewBox="0 0 39 37" fill="none" xmlns="http://www.w3.org/2000/svg">
<path d="M9.96738 26.4655C10.117 26.5154 10.2553 26.5943 10.3744 26.6976C10.4935 26.801 10.5911 26.9269 10.6615 27.068C10.732 27.2091 10.7739 27.3627 10.785 27.52C10.796 27.6774 10.7759 27.8353 10.7259 27.9849L9.52572 31.5853C9.41646 31.8759 9.19887 32.1128 8.91864 32.2463C8.63841 32.3799 8.31735 32.3996 8.02286 32.3014C7.72838 32.2033 7.48338 31.9948 7.33931 31.7199C7.19525 31.4449 7.16332 31.1248 7.25024 30.8268L8.45039 27.2264C8.55068 26.9243 8.76683 26.6745 9.05132 26.5318C9.3358 26.3891 9.66531 26.3653 9.96738 26.4655ZM17.1683 26.4655C17.3179 26.5154 17.4562 26.5943 17.5753 26.6976C17.6944 26.801 17.792 26.9269 17.8625 27.068C17.9329 27.2091 17.9748 27.3627 17.9859 27.52C17.9969 27.6774 17.9768 27.8353 17.9268 27.9849L15.5265 35.1858C15.4172 35.4763 15.1996 35.7132 14.9194 35.8468C14.6392 35.9803 14.3181 36.0001 14.0236 35.9019C13.7291 35.8037 13.4841 35.5953 13.3401 35.3203C13.196 35.0454 13.1641 34.7253 13.251 34.4273L15.6513 27.2264C15.7516 26.9243 15.9677 26.6745 16.2522 26.5318C16.5367 26.3891 16.8662 26.3653 17.1683 26.4655ZM24.3692 26.4655C24.5188 26.5154 24.6571 26.5943 24.7762 26.6976C24.8953 26.801 24.9929 26.9269 25.0634 27.068C25.1338 27.2091 25.1757 27.3627 25.1868 27.52C25.1978 27.6774 25.1777 27.8353 25.1277 27.9849L23.9275 31.5853C23.8183 31.8759 23.6007 32.1128 23.3205 32.2463C23.0402 32.3799 22.7192 32.3996 22.4247 32.3014C22.1302 32.2033 21.8852 31.9948 21.7411 31.7199C21.5971 31.4449 21.5651 31.1248 21.6521 30.8268L22.8522 27.2264C22.9525 26.9243 23.1686 26.6745 23.4531 26.5318C23.7376 26.3891 24.0671 26.3653 24.3692 26.4655ZM31.5701 26.4655C31.7197 26.5154 31.858 26.5943 31.9771 26.6976C32.0963 26.801 32.1938 26.9269 32.2643 27.068C32.3347 27.2091 32.3766 27.3627 32.3877 27.52C32.3987 27.6774 32.3786 27.8353 32.3286 27.9849L29.9283 35.1858C29.8831 35.3408 29.8071 35.485 29.7048 35.61C29.6026 35.7349 29.4761 35.8379 29.3331 35.9128C29.1901 35.9877 29.0335 36.0331 28.8726 36.046C28.7117 36.059 28.5498 36.0394 28.3966 35.9883C28.2435 35.9373 28.1022 35.8558 27.9812 35.7489C27.8603 35.642 27.7622 35.5117 27.6927 35.366C27.6233 35.2203 27.5839 35.062 27.5771 34.9007C27.5702 34.7394 27.596 34.5784 27.6528 34.4273L30.0531 27.2264C30.1534 26.9243 30.3696 26.6745 30.654 26.5318C30.9385 26.3891 31.268 26.3653 31.5701 26.4655ZM32.163 9.66818C31.6645 7.15545 30.3753 4.86808 28.4838 3.1405C26.5923 1.41293 24.1977 0.335766 21.6502 0.0665073C19.1027 -0.202752 16.5359 0.350016 14.325 1.64399C12.1142 2.93796 10.3752 4.90527 9.3625 7.25827C8.22677 7.12744 7.07628 7.22978 5.98148 7.55905C4.88668 7.88831 3.8706 8.43756 2.99545 9.17318C2.12031 9.90879 1.40451 10.8153 0.891887 11.8372C0.379264 12.859 0.0806028 13.9748 0.0141884 15.1161C-0.052226 16.2574 0.115004 17.4003 0.505641 18.4747C0.896277 19.5491 1.5021 20.5325 2.28601 21.3647C3.06993 22.1968 4.01544 22.8602 5.06467 23.3143C6.11389 23.7683 7.24474 24.0034 8.38798 24.0052H31.1909C33.0177 24.0073 34.7771 23.3149 36.1126 22.0683C37.4481 20.8217 38.2599 19.1141 38.3835 17.2914C38.5071 15.4687 37.9333 13.6672 36.7783 12.2517C35.6233 10.8363 33.9734 9.91272 32.163 9.66818ZM20.3895 2.40246C22.7513 2.40197 25.0304 3.27202 26.791 4.84624C28.5517 6.42046 29.6703 8.5884 29.9331 10.9355C29.9657 11.2304 30.1064 11.5028 30.3281 11.7001C30.5497 11.8973 30.8365 12.0055 31.1332 12.0037H31.1909C32.4641 12.0037 33.6851 12.5094 34.5854 13.4097C35.4857 14.31 35.9915 15.5311 35.9915 16.8043C35.9915 18.0775 35.4857 19.2985 34.5854 20.1988C33.6851 21.0991 32.4641 21.6049 31.1909 21.6049H8.38798C7.53845 21.6045 6.69869 21.4237 5.92426 21.0744C5.14982 20.7252 4.45836 20.2156 3.89561 19.5792C3.33286 18.9427 2.91166 18.1941 2.65986 17.3827C2.40806 16.5714 2.3314 15.7158 2.43496 14.8726C2.53852 14.0294 2.81993 13.2178 3.26059 12.4915C3.70124 11.7652 4.29109 11.1407 4.99111 10.6594C5.69113 10.1781 6.48538 9.85091 7.3213 9.69947C8.15723 9.54804 9.01578 9.57583 9.84016 9.78099C10.1343 9.85435 10.4452 9.8137 10.7106 9.66721C10.976 9.52072 11.1761 9.27925 11.2707 8.99129C11.9045 7.07347 13.1269 5.40435 14.764 4.22141C16.4012 3.03847 18.3697 2.40197 20.3895 2.40246Z" fill="#384744"/>
</svg>
