<svg width="39" height="43" viewBox="0 0 39 43" fill="none" xmlns="http://www.w3.org/2000/svg">
<path d="M9.20229 0.0697161C9.55001 -0.0353912 9.92522 0.00175017 10.2456 0.172989C10.566 0.344228 10.8053 0.635574 10.9111 0.983087L11.7093 3.60526C13.9376 2.15307 16.5402 1.38021 19.2 1.3808C21.9621 1.3808 24.5376 2.19817 26.6907 3.60526L27.4862 0.983087C27.5374 0.80957 27.6225 0.647904 27.7364 0.507403C27.8504 0.366902 27.9911 0.250343 28.1503 0.164441C28.3095 0.0785397 28.4842 0.0249929 28.6642 0.00688578C28.8442 -0.0112213 29.026 0.00646909 29.1992 0.058938C29.3723 0.111407 29.5334 0.197617 29.6731 0.312603C29.8128 0.427588 29.9283 0.569075 30.0131 0.728914C30.0978 0.888752 30.1501 1.06378 30.167 1.24392C30.1838 1.42406 30.1648 1.60575 30.1111 1.77852L28.9865 5.48686C31.5041 8.05129 32.9145 11.5014 32.9143 15.0951H34.2857C34.6494 15.0951 34.9983 14.9506 35.2555 14.6934C35.5127 14.4362 35.6571 14.0874 35.6571 13.7237V12.3522C35.6571 11.9885 35.8016 11.6397 36.0588 11.3825C36.316 11.1253 36.6648 10.9808 37.0286 10.9808C37.3923 10.9808 37.7411 11.1253 37.9983 11.3825C38.2555 11.6397 38.4 11.9885 38.4 12.3522V13.7237C38.4 14.8148 37.9665 15.8613 37.195 16.6329C36.4234 17.4045 35.3769 17.8379 34.2857 17.8379H32.9143V20.5808H37.0286C37.3923 20.5808 37.7411 20.7253 37.9983 20.9825C38.2555 21.2397 38.4 21.5885 38.4 21.9522C38.4 22.316 38.2555 22.6648 37.9983 22.922C37.7411 23.1792 37.3923 23.3237 37.0286 23.3237H32.9143V26.0665H34.2857C35.3769 26.0665 36.4234 26.5 37.195 27.2716C37.9665 28.0431 38.4 29.0896 38.4 30.1808V31.5522C38.4 31.916 38.2555 32.2648 37.9983 32.522C37.7411 32.7792 37.3923 32.9237 37.0286 32.9237C36.6648 32.9237 36.316 32.7792 36.0588 32.522C35.8016 32.2648 35.6571 31.916 35.6571 31.5522V30.1808C35.6571 29.8171 35.5127 29.4682 35.2555 29.2111C34.9983 28.9539 34.6494 28.8094 34.2857 28.8094H32.9143C32.9143 32.4466 31.4694 35.9349 28.8975 38.5068C26.3255 41.0788 22.8373 42.5237 19.2 42.5237C15.5627 42.5237 12.0745 41.0788 9.50254 38.5068C6.93061 35.9349 5.48571 32.4466 5.48571 28.8094H4.11429C3.75056 28.8094 3.40173 28.9539 3.14454 29.2111C2.88735 29.4682 2.74286 29.8171 2.74286 30.1808V31.5522C2.74286 31.916 2.59837 32.2648 2.34118 32.522C2.08398 32.7792 1.73515 32.9237 1.37143 32.9237C1.0077 32.9237 0.658875 32.7792 0.401682 32.522C0.144489 32.2648 0 31.916 0 31.5522V30.1808C0 29.0896 0.433468 28.0431 1.20505 27.2716C1.97662 26.5 3.02311 26.0665 4.11429 26.0665H5.48571V23.3237H1.37143C1.0077 23.3237 0.658875 23.1792 0.401682 22.922C0.144489 22.6648 0 22.316 0 21.9522C0 21.5885 0.144489 21.2397 0.401682 20.9825C0.658875 20.7253 1.0077 20.5808 1.37143 20.5808H5.48571V17.8379H4.11429C3.02311 17.8379 1.97662 17.4045 1.20505 16.6329C0.433468 15.8613 0 14.8148 0 13.7237V12.3522C0 11.9885 0.144489 11.6397 0.401682 11.3825C0.658875 11.1253 1.0077 10.9808 1.37143 10.9808C1.73515 10.9808 2.08398 11.1253 2.34118 11.3825C2.59837 11.6397 2.74286 11.9885 2.74286 12.3522V13.7237C2.74286 14.0874 2.88735 14.4362 3.14454 14.6934C3.40173 14.9506 3.75056 15.0951 4.11429 15.0951H5.48571C5.48571 11.3538 6.98606 7.96092 9.41349 5.48686L8.28891 1.77852C8.18381 1.4308 8.22095 1.05558 8.39219 0.735213C8.56343 0.414847 8.85477 0.175506 9.20229 0.0697161ZM8.22857 17.8379V28.8094C8.22765 31.4823 9.20265 34.0636 10.9702 36.0686C12.7378 38.0736 15.1766 39.3644 17.8286 39.6985V17.8379H8.22857ZM20.5714 17.8379V39.6985C23.2234 39.3644 25.6622 38.0736 27.4298 36.0686C29.1975 34.0636 30.1723 31.4823 30.1714 28.8094V17.8379H20.5714ZM30.1714 15.0951C30.1714 13.551 29.8455 12.0244 29.215 10.6149C28.5845 9.20548 27.6636 7.945 26.5125 6.91589C24.5039 5.11323 21.8988 4.11849 19.2 4.12366C16.5002 4.11782 13.894 5.1126 11.8848 6.91589C10.7342 7.94524 9.8138 9.20584 9.18376 10.6153C8.55372 12.0247 8.22823 13.5512 8.22857 15.0951H30.1714Z" fill="#FCDF50"/>
</svg>
