<svg width="39" height="39" viewBox="0 0 39 39" fill="none" xmlns="http://www.w3.org/2000/svg">
<path d="M19.2 36C14.7444 36 10.4712 34.23 7.32061 31.0794C4.16999 27.9288 2.4 23.6556 2.4 19.2C2.4 14.7444 4.16999 10.4712 7.32061 7.32061C10.4712 4.16999 14.7444 2.4 19.2 2.4C23.6556 2.4 27.9288 4.16999 31.0794 7.32061C34.23 10.4712 36 14.7444 36 19.2C36 23.6556 34.23 27.9288 31.0794 31.0794C27.9288 34.23 23.6556 36 19.2 36ZM19.2 38.4C24.2922 38.4 29.1758 36.3772 32.7765 32.7765C36.3772 29.1758 38.4 24.2922 38.4 19.2C38.4 14.1078 36.3772 9.22425 32.7765 5.62355C29.1758 2.02285 24.2922 0 19.2 0C14.1078 0 9.22425 2.02285 5.62355 5.62355C2.02285 9.22425 0 14.1078 0 19.2C0 24.2922 2.02285 29.1758 5.62355 32.7765C9.22425 36.3772 14.1078 38.4 19.2 38.4Z" fill="#384744"/>
<path d="M10.2865 22.9608C10.5621 22.8017 10.8896 22.7586 11.197 22.8409C11.5045 22.9233 11.7666 23.1244 11.9257 23.4C12.6631 24.6773 13.7239 25.7379 15.0013 26.4752C16.2786 27.2124 17.7276 27.6004 19.2026 27.6C20.6774 27.6004 22.1264 27.2124 23.4037 26.4752C24.6811 25.7379 25.7419 24.6773 26.4793 23.4C26.5575 23.2624 26.6622 23.1417 26.7872 23.0447C26.9123 22.9478 27.0553 22.8765 27.2081 22.835C27.3608 22.7936 27.5202 22.7827 27.6771 22.8031C27.8341 22.8235 27.9854 22.8748 28.1225 22.9539C28.2595 23.033 28.3796 23.1385 28.4757 23.2642C28.5718 23.3899 28.6422 23.5334 28.6826 23.6864C28.7231 23.8394 28.7328 23.9989 28.7114 24.1557C28.69 24.3125 28.6377 24.4635 28.5577 24.6C27.6096 26.2421 26.2459 27.6057 24.6037 28.5536C22.9615 29.5015 21.0986 30.0004 19.2026 30C17.3063 30.0004 15.4435 29.5015 13.8013 28.5536C12.1591 27.6057 10.7954 26.2421 9.84729 24.6C9.68817 24.3244 9.64505 23.9969 9.72741 23.6894C9.80978 23.382 10.0109 23.1199 10.2865 22.9608ZM16.8025 15.6C16.8025 17.5872 15.7273 19.2 14.4025 19.2C13.0777 19.2 12.0025 17.5872 12.0025 15.6C12.0025 13.6128 13.0777 12 14.4025 12C15.7273 12 16.8025 13.6128 16.8025 15.6ZM26.4025 15.6C26.4025 17.5872 25.3273 19.2 24.0025 19.2C22.6777 19.2 21.6025 17.5872 21.6025 15.6C21.6025 13.6128 22.6777 12 24.0025 12C25.3273 12 26.4025 13.6128 26.4025 15.6Z" fill="#384744"/>
</svg>
