<svg width="40" height="40" viewBox="0 0 40 40" fill="none" xmlns="http://www.w3.org/2000/svg">
<path d="M20 0C16.1168 0 12.9688 3.22611 12.9688 7.1094C12.9688 10.9927 16.1167 14.1407 20 14.1407C23.8833 14.1407 27.0313 10.9927 27.0313 7.1094C27.0313 3.22611 23.8832 0 20 0Z" fill="#16333B"/>
<path d="M25.2391 24.1798C22.1846 24.1798 21.1398 27.8247 21.1295 27.8614C21.1263 27.8725 21.1145 27.8775 21.111 27.8885C21.111 27.8884 21.1113 27.8884 21.1113 27.8882C20.9602 28.3773 20.5173 28.7162 20.0034 28.7185C20.0022 28.7185 20.0011 28.7185 19.9987 28.7185C19.4758 28.7185 19.0157 28.3694 18.8715 27.8659C18.8291 27.7148 17.7866 24.1797 14.7608 24.1797C12.4411 24.1797 10.6924 26.1206 10.6924 28.6956C10.6924 31.7604 13.4561 34.8362 18.0361 38.702C18.427 39.0315 18.8291 39.3708 19.2413 39.7211C19.6782 40.0922 20.3204 40.0933 20.7574 39.7223C21.1694 39.3726 21.5707 39.034 21.9603 38.7042C25.4446 35.7649 29.3075 31.9862 29.3075 28.6954C29.3075 26.1207 27.5589 24.1798 25.2391 24.1798Z" fill="#16333B"/>
<path d="M25.9767 14.2579C24.3595 15.6408 22.297 16.4844 20.0001 16.4844C17.7032 16.4844 15.6407 15.6407 14.0235 14.2579C7.46096 14.914 2.42188 20.4297 2.42188 27.1095V28.7501C2.42188 32.547 3.89844 36.1094 6.57041 38.7813C6.57041 38.8048 6.57041 38.8048 6.59384 38.8048C7.32041 39.5313 8.32823 39.9532 9.35948 39.9766C11.0731 39.9338 12.4593 38.6337 12.6875 36.9615C10.503 34.7172 8.34877 31.8415 8.34877 28.6956C8.34877 24.6923 11.4074 21.8359 14.75 21.8359C14.7523 21.8359 14.754 21.8363 14.7564 21.8363C14.7579 21.8363 14.7593 21.8359 14.761 21.8359C16.9667 21.8359 18.8097 23.0492 20.0012 24.824C21.2039 23.0323 22.9969 21.8359 25.2392 21.8359C25.2408 21.8359 25.2422 21.8363 25.2438 21.8363C25.2461 21.8363 25.2478 21.8359 25.2502 21.8359C28.8011 21.8359 31.6514 24.8818 31.6514 28.6956C31.541 28.9924 32.1269 31.8823 27.3096 36.9301C27.5247 38.6171 28.9164 39.9334 30.6408 39.9766C31.6721 39.9532 32.6799 39.5313 33.4065 38.8048C33.4299 38.8048 33.4299 38.8048 33.4299 38.7813C36.1017 36.1094 37.5783 32.547 37.5783 28.7501V27.1095C37.5783 20.4297 32.5391 14.914 25.9767 14.2579Z" fill="#16333B"/>
</svg>
