<svg width="48" height="48" viewBox="0 0 48 48" fill="none" xmlns="http://www.w3.org/2000/svg">
<path d="M23.3154 0.0481682C21.621 0.112103 19.9907 0.535679 18.4242 1.3189C16.8578 2.10211 15.5471 3.16505 14.4922 4.50771C13.661 5.53069 13.0137 6.68153 12.5501 7.96025C12.0866 9.23898 11.8388 10.5816 11.8069 11.9882C11.8069 13.6186 12.1425 15.193 12.8139 16.7115C13.4852 18.23 14.4123 19.5567 15.5951 20.6915C16.7779 21.8264 18.1365 22.6656 19.671 23.209C20.9177 23.7205 22.2604 23.9762 23.699 23.9762H23.8428C26.9757 23.9762 29.709 22.8893 32.0426 20.7155C33.2254 19.6286 34.1525 18.3099 34.8238 16.7595C35.4952 15.209 35.8308 13.6186 35.8308 11.9882C35.8308 10.7095 35.6151 9.43878 35.1835 8.17604C34.7519 6.9133 34.1525 5.77044 33.3853 4.74747C33.0976 4.39582 32.69 3.96425 32.1625 3.45276C31.635 2.94127 31.1795 2.54167 30.7959 2.25396C29.8049 1.55066 28.71 0.999214 27.5112 0.599617C26.3124 0.200016 25.0736 0.000213623 23.7949 0.000213623L23.2674 0.0481682H23.3154ZM25.9048 1.72649C27.5032 2.04617 28.9417 2.70152 30.2204 3.69252C31.4992 4.68353 32.4982 5.90631 33.2174 7.36086C33.9367 8.8154 34.2964 10.3579 34.2964 11.9882V12.0362C34.2964 13.4747 34.0087 14.8494 33.4332 16.1601C32.8578 17.4707 32.0586 18.6056 31.0356 19.5646C29.0216 21.4827 26.6161 22.4418 23.8188 22.4418C21.0216 22.4418 18.6161 21.4827 16.6021 19.5646C15.5791 18.6056 14.7799 17.4707 14.2045 16.1601C13.629 14.8494 13.3413 13.4588 13.3413 11.9882C13.3413 9.75047 13.9807 7.73648 15.2594 5.94627C16.5381 4.15606 18.2005 2.87734 20.2464 2.1101H20.3423C21.2055 1.79042 22.1166 1.59862 23.0756 1.53468C24.0346 1.47075 24.9777 1.53468 25.9048 1.72649ZM21.0616 5.75446C20.9337 5.8184 20.8378 5.97824 20.7739 6.23398C20.71 6.48973 20.678 6.95326 20.678 7.62459V8.9193H19.3353C18.4083 8.9193 17.8968 8.95126 17.8009 9.0152C17.641 9.1111 17.5371 9.3189 17.4892 9.63858C17.4412 9.95826 17.4172 10.7415 17.4172 11.9882C17.4172 13.5547 17.4492 14.4338 17.5132 14.6256C17.5771 14.8174 17.7209 14.9453 17.9447 15.0092C18.1685 15.0731 18.648 15.1051 19.3833 15.1051H20.678V16.3519C20.678 17.0552 20.71 17.5267 20.7739 17.7664C20.8378 18.0062 20.9497 18.166 21.1096 18.246C21.2694 18.3259 22.1725 18.3658 23.8188 18.3658C25.4652 18.3658 26.3683 18.3259 26.5281 18.246C26.688 18.166 26.7999 18.0062 26.8638 17.7664C26.9277 17.5267 26.9597 17.0552 26.9597 16.3519V15.1051H28.2544C28.9897 15.1051 29.4692 15.0731 29.693 15.0092C29.9167 14.9453 30.0606 14.8174 30.1245 14.6256C30.1885 14.4338 30.2204 13.5547 30.2204 11.9882C30.2204 10.7415 30.1965 9.95826 30.1485 9.63858C30.1006 9.3189 29.9967 9.1111 29.8368 9.0152C29.7409 8.95126 29.2294 8.9193 28.3024 8.9193H26.9597V7.62459C26.9597 6.95326 26.9277 6.48973 26.8638 6.23398C26.7999 5.97824 26.704 5.8184 26.5761 5.75446C26.4482 5.69053 25.5211 5.65856 23.7949 5.65856C22.0686 5.65856 21.1575 5.69053 21.0616 5.75446ZM25.4252 8.53568V9.87834L25.9048 10.4058L28.686 10.4538V13.5706H27.4392C26.5761 13.5706 26.0486 13.6026 25.8568 13.6665C25.665 13.7305 25.5451 13.8584 25.4972 14.0502C25.4492 14.242 25.4252 14.7215 25.4252 15.4887V16.8314H22.2125V15.4887C22.2125 14.7215 22.1885 14.242 22.1405 14.0502C22.0926 13.8584 21.9727 13.7305 21.7809 13.6665C21.5891 13.6026 21.0616 13.5706 20.1985 13.5706H18.9517V10.4538L21.7329 10.4058L22.2125 9.87834V7.14507H25.4252V8.53568ZM1.35331 15.4887C1.0656 15.6486 0.809857 15.8404 0.586081 16.0642C0.394272 16.2879 0.242424 16.5756 0.130536 16.9273C0.018648 17.2789 -0.021312 17.5906 0.010656 17.8624C0.042624 18.1341 0.34632 18.9413 0.921745 20.2839L2.79187 24.6476C4.70996 29.219 6.00466 32.0801 6.67599 33.231C7.05961 33.8384 7.53913 34.4538 8.11455 35.0771C8.68998 35.7005 9.69697 36.6675 11.1355 37.9782C12.1905 38.9373 12.8059 39.5127 12.9817 39.7045C13.1575 39.8963 13.2454 40.0721 13.2454 40.232V40.5197H12.7659C12.5421 40.5197 12.3903 40.5357 12.3104 40.5676C12.2304 40.5996 12.1425 40.6636 12.0466 40.7595L11.8069 40.9992V44.0202C11.8069 46.0022 11.8388 47.0572 11.9028 47.185L11.9507 47.2809C11.9827 47.3768 12.0706 47.4488 12.2145 47.4967C12.3583 47.5447 12.7179 47.5766 13.2934 47.5926C13.8688 47.6086 14.8598 47.6326 16.2664 47.6646H31.3713C32.7779 47.6326 33.7689 47.6086 34.3443 47.5926C34.9197 47.5766 35.2794 47.5447 35.4232 47.4967C35.5671 47.4488 35.655 47.3768 35.687 47.2809L35.7349 47.185C35.7989 47.0572 35.8308 46.0022 35.8308 44.0202V40.9992L35.5911 40.7595C35.4952 40.6636 35.4073 40.5996 35.3273 40.5676C35.2474 40.5357 35.0956 40.5197 34.8718 40.5197H34.3923V40.232C34.3923 40.0721 34.4802 39.8963 34.656 39.7045C34.8318 39.5127 35.4472 38.9373 36.5022 37.9782C37.9407 36.6675 38.9477 35.7005 39.5231 35.0771C40.0986 34.4538 40.5781 33.8304 40.9617 33.207C41.3453 32.5836 41.8328 31.6086 42.4242 30.2819C43.0157 28.9553 43.9028 26.9013 45.0856 24.1201L47.0037 19.5167C47.3233 18.7814 47.5152 18.254 47.5791 17.9343C47.643 17.6146 47.6111 17.2789 47.4832 16.9273C47.3233 16.256 46.9237 15.7764 46.2844 15.4887C45.8049 15.233 45.3014 15.169 44.7739 15.2969C44.2464 15.4248 43.7909 15.6965 43.4073 16.1121C43.1835 16.3678 42.4163 17.5666 41.1056 19.7085L39.1395 22.9213L38.7559 22.7295C38.4043 22.5696 38.0286 22.5057 37.629 22.5377C37.2294 22.5696 36.8698 22.6975 36.5501 22.9213C36.3263 23.0492 35.4712 24.0402 33.9847 25.8943C32.4982 27.7485 31.5471 28.8753 31.1315 29.2749C30.716 29.6745 29.8688 30.3539 28.5901 31.3129C27.3114 32.2719 26.3683 33.0552 25.7609 33.6626C25.1535 34.2699 24.626 34.9573 24.1785 35.7245L23.7949 36.3479L23.5551 35.9163C23.1715 35.181 22.644 34.4697 21.9727 33.7824C21.3014 33.0951 20.3104 32.2719 18.9997 31.3129C17.7529 30.3858 16.9138 29.7145 16.4822 29.2989C16.0506 28.8833 15.0996 27.7485 13.629 25.8943C12.1585 24.0402 11.3114 23.0492 11.0876 22.9213C10.7679 22.6975 10.4083 22.5696 10.0087 22.5377C9.60906 22.5057 9.23343 22.5696 8.88179 22.7295L8.49817 22.9213L6.53214 19.7085C5.22145 17.5666 4.45421 16.3678 4.23044 16.1121C3.84682 15.6965 3.39128 15.4248 2.8638 15.2969C2.33633 15.169 1.83283 15.233 1.35331 15.4887ZM2.88778 16.8793C3.01565 16.9433 3.19947 17.167 3.43923 17.5507C3.67899 17.9343 4.39028 19.1011 5.57309 21.0512L7.49118 24.216L7.53913 24.7914C7.53913 25.175 7.58708 25.4947 7.68298 25.7505C8.03463 26.7734 8.61006 28.0841 9.40926 29.6825C10.2085 31.2809 10.7359 32.176 10.9917 32.3678C11.2474 32.5597 11.5191 32.5756 11.8069 32.4158C11.9347 32.3199 12.0306 32.2 12.0946 32.0562C12.1585 31.9123 12.1745 31.7764 12.1425 31.6486C12.1106 31.5207 11.9347 31.169 11.6151 30.5936C11.0716 29.6665 10.5201 28.5796 9.96071 27.3329C9.40127 26.0861 9.10556 25.2709 9.07359 24.8873C9.04163 24.7275 9.03363 24.6156 9.04962 24.5517C9.0656 24.4877 9.13753 24.4078 9.2654 24.3119C9.42524 24.1201 9.61705 24.0242 9.84083 24.0242C9.9687 24.0242 10.0966 24.0562 10.2244 24.1201C10.3203 24.184 11.1116 25.1431 12.5981 26.9972C14.0846 28.8514 15.0596 29.9942 15.5231 30.4258C15.9867 30.8574 16.8099 31.5127 17.9927 32.3918C19.1755 33.2709 19.9747 33.9023 20.3903 34.2859C21.2214 35.0212 21.8688 35.8604 22.3323 36.8034C22.7959 37.7465 23.0276 38.7135 23.0276 39.7045L23.0756 40.4717H14.8278L14.7799 39.9922C14.7799 39.7684 14.7639 39.5447 14.7319 39.3209V39.3688C14.7 39.241 13.8368 38.3938 12.1425 36.8274C10.7999 35.6126 9.8648 34.7255 9.33733 34.166C8.80986 33.6066 8.38628 33.0711 8.0666 32.5597C7.42724 31.5367 6.13253 28.7075 4.18248 24.0721L2.50416 20.0921C1.89677 18.6536 1.57709 17.8703 1.54512 17.7425C1.51315 17.6146 1.52914 17.4707 1.59307 17.3109C1.65701 17.1511 1.75291 17.0232 1.88079 16.9273C2.13653 16.7035 2.47219 16.6875 2.88778 16.8793ZM45.7569 16.9273C45.8848 17.0232 45.9807 17.1511 46.0446 17.3109C46.1086 17.4707 46.1325 17.6146 46.1166 17.7425C46.1006 17.8703 45.7729 18.6695 45.1335 20.1401C43.0876 24.9672 41.7529 28.0761 41.1295 29.4667C40.5062 30.8574 39.9867 31.8883 39.5711 32.5597C39.3793 32.8793 39.0516 33.3189 38.5881 33.8783C38.1245 34.4378 37.7649 34.8134 37.5092 35.0052C37.0936 35.3569 36.2224 36.1481 34.8958 37.3788C33.5691 38.6096 32.8978 39.2729 32.8818 39.3688C32.8658 39.4648 32.8578 39.6725 32.8578 39.9922L32.8099 40.4717L24.6101 40.5197V39.7525C24.6101 38.7615 24.8258 37.8104 25.2574 36.8993C25.689 35.9882 26.3203 35.1491 27.1515 34.3818C27.5032 34.0302 28.3024 33.3908 29.5491 32.4638C30.7959 31.5367 31.651 30.8574 32.1146 30.4258C32.5781 29.9942 33.4492 28.9792 34.7279 27.3808L36.7419 24.8873C37.0616 24.5037 37.2774 24.264 37.3893 24.168C37.5012 24.0721 37.621 24.0242 37.7489 24.0242L37.7969 24.0721C37.9247 24.0721 38.0286 24.0801 38.1086 24.0961C38.1885 24.1121 38.2844 24.176 38.3963 24.2879C38.5082 24.3998 38.5721 24.4877 38.5881 24.5517C38.6041 24.6156 38.5961 24.7275 38.5641 24.8873C38.5321 25.2709 38.2364 26.0861 37.677 27.3329C37.1175 28.5796 36.5661 29.6665 36.0226 30.5936C35.703 31.169 35.5271 31.5207 35.4952 31.6486C35.4632 31.7764 35.4792 31.9123 35.5431 32.0562C35.6071 32.2 35.703 32.3199 35.8308 32.4158C36.1185 32.5756 36.3983 32.5517 36.67 32.3439C36.9417 32.1361 37.5172 31.1211 38.3963 29.2989C39.2754 27.4767 39.8109 26.182 40.0027 25.4148C40.0986 25.0951 40.1385 24.8394 40.1225 24.6476C40.1066 24.4558 40.2026 24.168 40.4103 23.7844C40.618 23.4008 41.2174 22.3938 42.2085 20.7635C43.6151 18.4618 44.4063 17.223 44.5821 17.0472C44.7579 16.8713 44.9577 16.7674 45.1815 16.7355C45.4053 16.7035 45.5971 16.7674 45.7569 16.9273ZM23.0756 44.0681V46.1301H13.3413V41.9583H23.0756V44.0681ZM34.2964 44.0681V46.1301H24.6101V41.9583H34.2964V44.0681Z" fill="#16333B"/>
</svg>
