<svg width="48" height="36" viewBox="0 0 48 36" fill="none" xmlns="http://www.w3.org/2000/svg">
<path d="M6.18581 0.191681L5.99401 0.431438L5.94605 2.82904H3.30869C2.22178 2.82904 1.51848 2.82904 1.1988 2.82904C0.783217 2.86101 0.511489 2.90896 0.383616 2.9729C0.255744 3.03683 0.15984 3.14872 0.0959041 3.30856C0.031968 3.4684 0 8.71116 0 19.0368V29.1068C0.031968 31.0568 0.0559441 32.4314 0.0719281 33.2306C0.0879121 34.0298 0.111888 34.5573 0.143856 34.8131C0.175824 34.9729 0.23976 35.0688 0.335664 35.1008L0.383616 35.1487C0.511489 35.2127 5.70629 35.2446 15.968 35.2446C26.2298 35.2446 31.4166 35.2127 31.5285 35.1487C31.6404 35.0848 31.7363 34.9649 31.8162 34.7891C31.8961 34.6133 31.9201 34.4534 31.8881 34.3096C31.8561 34.1657 31.7762 34.0458 31.6484 33.9499C31.5524 33.854 31.3367 33.7981 31.001 33.7821C30.6653 33.7661 29.6823 33.7581 28.0519 33.7581H24.6474L24.6953 31.888L25.3187 31.4564C25.8941 31.0089 26.5574 30.6332 27.3087 30.3295C28.0599 30.0258 28.8192 29.826 29.5864 29.7301C30.0659 29.6662 32.1119 29.6342 35.7243 29.6342L39.8961 29.5863C40.6314 29.5863 41.0949 29.5623 41.2867 29.5144C41.4785 29.4664 41.6064 29.3625 41.6703 29.2027C41.7343 29.0428 41.7662 24.855 41.7662 16.6392V4.36351H46.1778V33.7581H39.3207L39.1289 33.9979C38.969 34.1257 38.8891 34.2936 38.8891 34.5014C38.8891 34.7092 38.969 34.877 39.1289 35.0049L39.3207 35.1967H43.2527C45.8422 35.1967 47.2008 35.1807 47.3287 35.1487L47.3766 35.1008C47.4725 35.0688 47.5365 34.9729 47.5684 34.8131C47.6004 34.5573 47.6244 34.0298 47.6404 33.2306C47.6563 32.4314 47.6803 31.0568 47.7123 29.1068V19.0368C47.7123 8.71116 47.6803 3.4684 47.6164 3.30856C47.5524 3.14872 47.4565 3.03683 47.3287 2.9729C47.2008 2.90896 46.9291 2.86101 46.5135 2.82904C46.1938 2.82904 45.4905 2.82904 44.4036 2.82904H41.7662L41.7183 0.383488L41.2867 -0.0001297H35.5325C33.1668 -0.0001297 31.6164 0.0158539 30.8811 0.047821C29.9221 0.0797882 29.2028 0.127747 28.7233 0.191681C28.4036 0.255615 27.956 0.367504 27.3806 0.527344C26.3257 0.878994 25.3826 1.37449 24.5514 2.01385L23.8801 2.49338L23.1608 2.01385C22.3297 1.40646 21.4026 0.926945 20.3796 0.575294L20.3317 0.527344C19.7562 0.367504 19.3087 0.255615 18.989 0.191681C18.5095 0.127747 17.7902 0.0797882 16.8312 0.047821C16.0959 0.0158539 14.5455 -0.0001297 12.1798 -0.0001297H6.42557L6.18581 0.191681ZM19.3726 1.82205C20.6513 2.20567 21.8022 2.81306 22.8252 3.64423L22.7772 3.59628L23.1129 3.88399V16.9749C23.1129 25.6702 23.1049 30.0179 23.0889 30.0179C23.0729 30.0179 22.8252 29.874 22.3457 29.5863C20.971 28.7871 19.4845 28.3235 17.8861 28.1957H17.8382C17.2308 28.1317 15.3447 28.0998 12.1798 28.0998H7.48052V1.53434L18.6054 1.58229L19.3726 1.82205ZM40.2318 14.8171V28.0998H35.5325C32.3676 28.0998 30.4815 28.1317 29.8741 28.1957C28.2438 28.3235 26.7413 28.7871 25.3666 29.5863H25.4146L24.6474 30.0179V3.83603L25.2228 3.35651C25.7343 2.9729 26.3576 2.61325 27.0929 2.27759C27.8282 1.94193 28.5315 1.72615 29.2028 1.63024C29.4585 1.59827 31.3606 1.5663 34.9091 1.53434H40.2318V14.8171ZM5.94605 16.6872C5.94605 17.1347 5.94605 17.7901 5.94605 18.6532V24.839C5.94605 26.3415 5.95405 27.4045 5.97003 28.0278C5.98601 28.6512 6.01798 29.0428 6.06593 29.2027C6.11389 29.3625 6.18581 29.4584 6.28172 29.4904L6.37762 29.5383C6.50549 29.6023 8.37562 29.6342 11.988 29.6342C15.6004 29.6342 17.6464 29.6662 18.1259 29.7301C19.1169 29.826 20.0599 30.0978 20.955 30.5453C21.3067 30.7052 21.7143 30.9449 22.1778 31.2646C22.6414 31.5843 22.9211 31.8081 23.017 31.9359C23.1129 32.0318 23.1449 32.3515 23.1129 32.895V33.7581L1.53447 33.8061V4.36351H5.94605V16.6872ZM17.6943 5.65821C17.4386 5.85002 17.3107 6.08978 17.3107 6.37749C17.3107 6.66521 17.4066 6.89697 17.5984 7.0728C17.7902 7.24862 18.046 7.32055 18.3656 7.28858C18.5894 7.25661 18.7732 7.16071 18.9171 7.00087C19.0609 6.84103 19.1329 6.63324 19.1329 6.37749C19.1329 6.21765 19.1169 6.09777 19.0849 6.01785C19.0529 5.93793 18.981 5.84203 18.8691 5.73014C18.7572 5.61825 18.6613 5.54632 18.5814 5.51436C18.5015 5.48239 18.3816 5.4664 18.2218 5.4664H18.1738C17.982 5.4664 17.8222 5.53034 17.6943 5.65821ZM12.036 11.3645C11.9081 11.3965 11.7962 11.5004 11.7003 11.6762C11.6044 11.852 11.5724 11.9879 11.6044 12.0838C11.7003 12.3715 11.8202 12.5553 11.964 12.6352C12.1079 12.7152 13.2348 12.7551 15.3447 12.7551H18.5095L18.7493 12.5154C18.973 12.2916 19.037 12.0438 18.9411 11.7721C18.8452 11.5004 18.6374 11.3325 18.3177 11.2686C18.1578 11.2366 17.1109 11.2207 15.1768 11.2207C13.2428 11.2207 12.1958 11.2686 12.036 11.3645ZM29.2987 11.2686C29.1708 11.3325 29.0589 11.4125 28.963 11.5084C28.8032 11.6682 28.7233 11.836 28.7233 12.0119C28.7233 12.1877 28.8032 12.3555 28.963 12.5154L29.2028 12.7551L34.7173 12.7072C35.2288 12.7072 35.5564 12.6832 35.7003 12.6352C35.8442 12.5873 35.9481 12.4914 36.012 12.3475C36.0759 12.2037 36.1079 12.0918 36.1079 12.0119C36.1079 11.9319 36.0839 11.8201 36.036 11.6762C35.988 11.5323 35.8921 11.4284 35.7483 11.3645C35.6044 11.3006 35.2927 11.2686 34.8132 11.2686C34.4296 11.2366 33.6304 11.2207 32.4156 11.2207C30.4655 11.2526 29.4266 11.2686 29.2987 11.2686ZM11.8442 17.1188C11.6843 17.2466 11.6044 17.4065 11.6044 17.5983C11.6044 18.0458 11.8442 18.3016 12.3237 18.3655C12.5794 18.3975 13.6663 18.4135 15.5844 18.4135L18.5095 18.3655L18.7493 18.1257C19.037 17.8061 19.037 17.4864 18.7493 17.1667L18.5574 16.879H12.036L11.8442 17.1188ZM28.963 17.1667C28.6753 17.4864 28.6753 17.8061 28.963 18.1257L29.2028 18.3655L32.1279 18.4135C34.046 18.4135 35.1329 18.3975 35.3886 18.3655C35.8681 18.3016 36.1079 18.0618 36.1079 17.6462C36.1079 17.4225 36.028 17.2466 35.8681 17.1188L35.6763 16.879H29.1548L28.963 17.1667ZM11.8442 22.7291C11.6843 22.857 11.6044 23.0089 11.6044 23.1847C11.6044 23.3605 11.6523 23.5204 11.7483 23.6642C11.8442 23.8081 11.972 23.904 12.1319 23.9519C12.2917 23.9999 13.3546 24.0238 15.3207 24.0238C17.2867 24.0238 18.3417 23.9999 18.4855 23.9519C18.6294 23.904 18.7493 23.8161 18.8452 23.6882C18.9411 23.5603 18.989 23.4085 18.989 23.2326C18.989 23.0568 18.9251 22.905 18.7972 22.7771L18.6054 22.5373L12.0839 22.4894L11.8442 22.7291ZM34.957 33.6622C34.6374 33.854 34.4775 34.1417 34.4775 34.5253C34.4775 34.7172 34.5335 34.893 34.6454 35.0528C34.7572 35.2127 34.9091 35.3245 35.1009 35.3885C35.4206 35.4844 35.7083 35.4205 35.964 35.1967C36.2198 34.9729 36.3317 34.6932 36.2997 34.3575C36.2677 34.0219 36.0759 33.7901 35.7243 33.6622C35.5644 33.5983 35.4446 33.5663 35.3646 33.5663C35.2847 33.5663 35.1488 33.5983 34.957 33.6622Z" fill="#16333B"/>
</svg>
