<svg width="44" height="48" viewBox="0 0 44 48" fill="none" xmlns="http://www.w3.org/2000/svg">
<path d="M10.3526 0.0784306C10.7438 -0.0398151 11.1659 0.00196894 11.5263 0.194613C11.8867 0.387256 12.156 0.715021 12.275 1.10597L13.1729 4.05592C15.6798 2.42221 18.6077 1.55274 21.6 1.5534C24.7073 1.5534 27.6048 2.47294 30.0271 4.05592L30.9219 1.10597C30.9796 0.910766 31.0753 0.728892 31.2035 0.570828C31.3317 0.412765 31.49 0.281636 31.6691 0.184997C31.8482 0.0883572 32.0447 0.028117 32.2472 0.0077465C32.4498 -0.012624 32.6543 0.00727772 32.8491 0.0663053C33.0439 0.125333 33.2251 0.222319 33.3822 0.351678C33.5394 0.481036 33.6694 0.640209 33.7647 0.820028C33.8601 0.999846 33.9189 1.19676 33.9378 1.39941C33.9568 1.60207 33.9354 1.80647 33.875 2.00083L32.6098 6.17272C35.4421 9.0577 37.0288 12.9391 37.0286 16.982H38.5714C38.9806 16.982 39.3731 16.8194 39.6624 16.5301C39.9517 16.2407 40.1143 15.8483 40.1143 15.4391V13.8963C40.1143 13.4871 40.2768 13.0946 40.5662 12.8053C40.8555 12.516 41.248 12.3534 41.6571 12.3534C42.0663 12.3534 42.4588 12.516 42.7481 12.8053C43.0374 13.0946 43.2 13.4871 43.2 13.8963V15.4391C43.2 16.6667 42.7124 17.844 41.8443 18.712C40.9763 19.58 39.799 20.0677 38.5714 20.0677H37.0286V23.1534H41.6571C42.0663 23.1534 42.4588 23.316 42.7481 23.6053C43.0374 23.8946 43.2 24.2871 43.2 24.6963C43.2 25.1054 43.0374 25.4979 42.7481 25.7872C42.4588 26.0766 42.0663 26.2391 41.6571 26.2391H37.0286V29.3248H38.5714C39.799 29.3248 40.9763 29.8125 41.8443 30.6805C42.7124 31.5485 43.2 32.7258 43.2 33.9534V35.4963C43.2 35.9054 43.0374 36.2979 42.7481 36.5872C42.4588 36.8766 42.0663 37.0391 41.6571 37.0391C41.248 37.0391 40.8555 36.8766 40.5662 36.5872C40.2768 36.2979 40.1143 35.9054 40.1143 35.4963V33.9534C40.1143 33.5442 39.9517 33.1518 39.6624 32.8624C39.3731 32.5731 38.9806 32.4105 38.5714 32.4105H37.0286C37.0286 36.5025 35.4031 40.4268 32.5096 43.3202C29.6162 46.2136 25.6919 47.8391 21.6 47.8391C17.5081 47.8391 13.5838 46.2136 10.6904 43.3202C7.79693 40.4268 6.17143 36.5025 6.17143 32.4105H4.62857C4.21938 32.4105 3.82695 32.5731 3.53761 32.8624C3.24827 33.1518 3.08571 33.5442 3.08571 33.9534V35.4963C3.08571 35.9054 2.92316 36.2979 2.63382 36.5872C2.34448 36.8766 1.95205 37.0391 1.54286 37.0391C1.13367 37.0391 0.741234 36.8766 0.451892 36.5872C0.16255 36.2979 0 35.9054 0 35.4963V33.9534C0 32.7258 0.487652 31.5485 1.35568 30.6805C2.2237 29.8125 3.401 29.3248 4.62857 29.3248H6.17143V26.2391H1.54286C1.13367 26.2391 0.741234 26.0766 0.451892 25.7872C0.16255 25.4979 0 25.1054 0 24.6963C0 24.2871 0.16255 23.8946 0.451892 23.6053C0.741234 23.316 1.13367 23.1534 1.54286 23.1534H6.17143V20.0677H4.62857C3.401 20.0677 2.2237 19.58 1.35568 18.712C0.487652 17.844 0 16.6667 0 15.4391V13.8963C0 13.4871 0.16255 13.0946 0.451892 12.8053C0.741234 12.516 1.13367 12.3534 1.54286 12.3534C1.95205 12.3534 2.34448 12.516 2.63382 12.8053C2.92316 13.0946 3.08571 13.4871 3.08571 13.8963V15.4391C3.08571 15.8483 3.24827 16.2407 3.53761 16.5301C3.82695 16.8194 4.21938 16.982 4.62857 16.982H6.17143C6.17143 12.7731 7.85931 8.95603 10.5902 6.17272L9.32503 2.00083C9.20678 1.60965 9.24857 1.18753 9.44121 0.827115C9.63386 0.466703 9.96162 0.197444 10.3526 0.0784306ZM9.25714 20.0677V32.4105C9.25611 35.4176 10.3529 38.3216 12.3415 40.5772C14.33 42.8329 17.0737 44.285 20.0571 44.6608V20.0677H9.25714ZM23.1429 20.0677V44.6608C26.1263 44.285 28.87 42.8329 30.8585 40.5772C32.8471 38.3216 33.9439 35.4176 33.9429 32.4105V20.0677H23.1429ZM33.9429 16.982C33.9428 15.2449 33.5762 13.5274 32.8669 11.9418C32.1575 10.3562 31.1215 8.93812 29.8265 7.78037C27.5669 5.75239 24.6362 4.63331 21.6 4.63912C18.5627 4.63254 15.6308 5.75168 13.3704 7.78037C12.076 8.9384 11.0405 10.3566 10.3317 11.9422C9.62294 13.5278 9.25676 15.2452 9.25714 16.982H33.9429Z" fill="#384744"/>
</svg>
