<svg width="40" height="47" viewBox="0 0 40 47" fill="none" xmlns="http://www.w3.org/2000/svg">
<path d="M19.1982 0.054081C18.9433 0.118019 18.6963 0.221916 18.4574 0.365772C18.2184 0.509628 17.8918 0.773365 17.4775 1.15698C13.7494 4.54559 9.19283 6.31982 3.80778 6.47966C2.97931 6.51162 2.38982 6.55958 2.03931 6.62351C1.24271 6.75138 0.653217 7.19894 0.270846 7.96617L0.0796606 8.39774L0.0318642 12.2819C-0.0318642 15.9262 0 18.8353 0.127457 21.0091C0.254914 23.183 0.52576 25.2289 0.939995 27.147C2.40575 34.0201 5.94268 39.2948 11.5508 42.9712C12.2837 43.4507 12.9528 43.8663 13.5582 44.2179C14.6098 44.7933 15.7967 45.3528 17.1191 45.8962C18.4414 46.4397 19.2699 46.7114 19.6045 46.7114C19.939 46.7114 20.664 46.4876 21.7792 46.0401C22.8945 45.5925 23.946 45.113 24.9338 44.6015C26.2721 43.9302 27.459 43.2269 28.4946 42.4916C29.5302 41.7564 30.5419 40.9092 31.5297 39.9502C32.9636 38.5116 34.1824 36.9772 35.1861 35.3468C36.1898 33.7164 37.0103 31.8942 37.6476 29.8803C38.3486 27.6425 38.8186 25.2129 39.0576 22.5915C39.2966 19.9702 39.3683 16.4057 39.2727 11.8982L39.2249 8.39774L39.0337 7.96617C38.6513 7.19894 38.0618 6.75138 37.2652 6.62351C36.7235 6.55958 36.134 6.51162 35.4968 6.47966C30.0798 6.31982 25.5233 4.54559 21.827 1.15698C21.2853 0.645493 20.8233 0.309826 20.4409 0.149986C20.0585 -0.00985336 19.6443 -0.0418205 19.1982 0.054081ZM20.1063 1.68445C20.2657 1.81232 20.6321 2.11602 21.2057 2.59554C22.767 3.97017 24.416 5.06507 26.1526 5.88026C27.8892 6.69544 29.809 7.27886 31.912 7.6305C33.0273 7.85428 34.3019 7.98215 35.7357 8.01412C36.5005 8.04609 36.9864 8.09404 37.1935 8.15798C37.4007 8.22192 37.544 8.35778 37.6237 8.56557C37.7034 8.77337 37.7512 10.6515 37.7671 14.1999C37.783 17.7484 37.7591 20.0181 37.6954 21.0091C37.4405 24.4297 36.8988 27.3788 36.0703 29.8563C35.2419 32.3338 34.0629 34.5955 32.5334 36.6415C32.1829 37.089 31.6332 37.6964 30.8844 38.4637C30.1356 39.2309 29.5222 39.8063 29.0443 40.1899C26.527 42.2359 23.6592 43.8183 20.4409 44.9372L19.6762 45.2249L18.8636 44.9372C17.3979 44.4257 15.9242 43.7624 14.4425 42.9472C12.9608 42.132 11.6304 41.2769 10.4515 40.3818C9.87791 39.9022 9.21673 39.2789 8.46792 38.5116C7.71911 37.7444 7.13759 37.0731 6.72335 36.4976C5.51251 34.8992 4.53269 33.1889 3.78388 31.3668C3.03507 29.5446 2.48541 27.4667 2.1349 25.133C1.81626 23.3428 1.62508 21.2968 1.56135 18.9951C1.49762 17.4926 1.48169 15.4227 1.51355 12.7854C1.54542 10.148 1.60118 8.7334 1.68084 8.5416C1.7605 8.34979 1.91185 8.22192 2.1349 8.15798C2.35795 8.09404 2.83592 8.04609 3.56879 8.01412C5.00269 7.98215 6.27726 7.85428 7.3925 7.6305C9.49554 7.27886 11.4154 6.69544 13.152 5.88026C14.8886 5.06507 16.5375 3.97017 18.0989 2.59554C18.6406 2.11602 18.9991 1.81232 19.1743 1.68445C19.3496 1.55658 19.5089 1.49265 19.6523 1.49265C19.7957 1.49265 19.947 1.55658 20.1063 1.68445ZM16.426 13.5286C16.2667 13.6245 16.1631 13.8643 16.1153 14.2479C16.0675 14.6315 16.0436 15.4787 16.0436 16.7893V19.3308H13.367C12.2837 19.3308 11.5986 19.3308 11.3118 19.3308C10.8976 19.3628 10.6347 19.4107 10.5232 19.4747C10.4116 19.5386 10.324 19.6505 10.2603 19.8103C10.1966 19.9702 10.1647 20.9852 10.1647 22.8553C10.1647 24.7254 10.1886 25.7324 10.2364 25.8763C10.2842 26.0201 10.3718 26.14 10.4993 26.2359C10.6267 26.3318 10.8179 26.3877 11.0728 26.4037C11.3277 26.4197 12.1084 26.4277 13.4148 26.4277L16.0436 26.4757L16.0914 29.113C16.0914 30.3278 16.0994 31.0871 16.1153 31.3907C16.1313 31.6944 16.1791 31.9102 16.2587 32.0381C16.3384 32.166 16.4499 32.2539 16.5933 32.3018C16.7367 32.3498 17.7563 32.3738 19.6523 32.3738C21.5482 32.3738 22.5678 32.3418 22.7112 32.2779C22.8546 32.2139 22.9741 32.118 23.0697 31.9901C23.1334 31.8942 23.1733 31.6944 23.1892 31.3907C23.2051 31.0871 23.2131 30.3278 23.2131 29.113L23.2609 26.4757H25.7941C27.4829 26.4757 28.4229 26.4357 28.6141 26.3558C28.8053 26.2759 28.9327 26.164 28.9965 26.0201C29.0602 25.8763 29.108 25.5806 29.1398 25.133C29.1398 24.7814 29.1398 24.0301 29.1398 22.8793C29.1398 21.0251 29.108 20.0101 29.0443 19.8343C28.9805 19.6585 28.8929 19.5386 28.7814 19.4747C28.6699 19.4107 28.407 19.3628 27.9927 19.3308C27.706 19.3308 27.0209 19.3308 25.9375 19.3308H23.2609V16.7893C23.2609 15.095 23.229 14.152 23.1653 13.9602C23.1016 13.7684 23.0139 13.6405 22.9024 13.5766C22.7909 13.5126 22.5121 13.4647 22.066 13.4327C21.7155 13.4327 20.9348 13.4327 19.724 13.4327H19.6284C18.3219 13.4327 17.4775 13.4407 17.0952 13.4567C16.7128 13.4727 16.4897 13.4966 16.426 13.5286ZM21.7314 17.6045V20.3378L21.9226 20.5776C22.0501 20.6735 22.1934 20.7534 22.3528 20.8173C22.5439 20.8493 23.468 20.8653 25.125 20.8653H27.6104V24.9412H22.2094L21.7314 25.3728V30.8393H17.5731V25.3728L17.0952 24.9412H11.6942V20.8653H14.1796C15.8365 20.8653 16.7526 20.8413 16.9279 20.7933C17.1031 20.7454 17.2545 20.6735 17.3819 20.5776L17.5731 20.3378V14.8713H21.7314V17.6045Z" fill="#16333B"/>
</svg>
