<svg width="208" height="50" viewBox="0 0 208 50" fill="none" xmlns="http://www.w3.org/2000/svg">
<path d="M48.2271 5.72353C49.0048 5.72353 49.6853 6.01518 50.2686 6.59848C50.8844 7.14938 51.1922 7.84611 51.1922 8.68866V36.7845C51.1922 37.6271 50.8844 38.34 50.2686 38.9233C49.6529 39.4742 48.94 39.7496 48.1299 39.7496C47.2225 39.7496 46.4934 39.4742 45.9425 38.9233C45.3916 38.34 45.1161 37.6271 45.1161 36.7845V8.68866C45.1161 7.84611 45.4078 7.14938 45.9911 6.59848C46.5744 6.01518 47.3197 5.72353 48.2271 5.72353ZM69.7607 5.72353C70.6681 5.72353 71.3972 6.01518 71.9481 6.59848C72.499 7.14938 72.7745 7.84611 72.7745 8.68866V36.7845C72.7745 37.6271 72.4828 38.34 71.8995 38.9233C71.3486 39.4742 70.6033 39.7496 69.6635 39.7496C68.8858 39.7496 68.1891 39.4742 67.5733 38.9233C66.99 38.34 66.6984 37.6271 66.6984 36.7845V8.68866C66.6984 7.84611 67.0062 7.14938 67.622 6.59848C68.2377 6.01518 68.9506 5.72353 69.7607 5.72353ZM48.0812 19.8687H69.7607V25.4587H48.0812V19.8687ZM89.8726 40.2357C87.1181 40.2357 84.7201 39.6686 82.6785 38.5344C80.6694 37.3678 79.1139 35.7961 78.0121 33.8194C76.9427 31.8426 76.408 29.6066 76.408 27.1114C76.408 24.1948 76.9913 21.7158 78.1579 19.6742C79.3569 17.6003 80.9124 16.0124 82.8243 14.9106C84.7363 13.8088 86.7616 13.2579 88.9004 13.2579C90.5531 13.2579 92.1086 13.5981 93.5669 14.2787C95.0575 14.9592 96.37 15.899 97.5042 17.098C98.6384 18.2646 99.5295 19.6256 100.178 21.1811C100.858 22.7366 101.198 24.3893 101.198 26.1392C101.166 26.9169 100.858 27.5488 100.275 28.0349C99.6916 28.521 99.011 28.7641 98.2333 28.7641H79.6648L78.2065 23.9032H96.0459L94.9765 24.8754V23.5629C94.9117 22.6232 94.5714 21.7806 93.9557 21.0353C93.3724 20.2899 92.6271 19.7066 91.7197 19.2854C90.8448 18.8317 89.905 18.6048 88.9004 18.6048C87.9283 18.6048 87.0209 18.7345 86.1783 18.9937C85.3358 19.253 84.6067 19.6904 83.9909 20.3061C83.3752 20.9219 82.8891 21.7482 82.5327 22.7852C82.1762 23.8222 81.998 25.1346 81.998 26.7225C81.998 28.4724 82.3545 29.9631 83.0674 31.1945C83.8127 32.3935 84.7525 33.3171 85.8867 33.9652C87.0533 34.5809 88.2847 34.8888 89.581 34.8888C90.78 34.8888 91.7359 34.7916 92.4489 34.5971C93.1618 34.4027 93.7289 34.1758 94.1502 33.9166C94.6039 33.6249 95.0089 33.3819 95.3654 33.1875C95.9487 32.8958 96.4996 32.75 97.0181 32.75C97.731 32.75 98.3143 32.993 98.768 33.4791C99.2541 33.9652 99.4971 34.5323 99.4971 35.1804C99.4971 36.0554 99.0435 36.8493 98.1361 37.5622C97.2935 38.2752 96.1107 38.9071 94.5877 39.458C93.0646 39.9765 91.4929 40.2357 89.8726 40.2357ZM125.831 13.2579C126.673 13.2579 127.37 13.5333 127.921 14.0842C128.472 14.6351 128.747 15.3481 128.747 16.223V36.7845C128.747 37.6271 128.472 38.34 127.921 38.9233C127.37 39.4742 126.673 39.7496 125.831 39.7496C124.988 39.7496 124.292 39.4742 123.741 38.9233C123.19 38.34 122.914 37.6271 122.914 36.7845V34.4027L123.984 34.8402C123.984 35.2614 123.757 35.7799 123.303 36.3956C122.85 36.9789 122.234 37.5622 121.456 38.1456C120.678 38.7289 119.755 39.2311 118.685 39.6524C117.648 40.0413 116.514 40.2357 115.283 40.2357C113.047 40.2357 111.021 39.6686 109.207 38.5344C107.392 37.3678 105.95 35.7799 104.881 33.7708C103.844 31.7292 103.325 29.396 103.325 26.7711C103.325 24.1138 103.844 21.7806 104.881 19.7715C105.95 17.7299 107.376 16.142 109.158 15.0078C110.94 13.8412 112.917 13.2579 115.088 13.2579C116.482 13.2579 117.762 13.4685 118.928 13.8898C120.095 14.3111 121.1 14.8458 121.942 15.4939C122.817 16.142 123.481 16.8063 123.935 17.4868C124.421 18.135 124.664 18.6859 124.664 19.1395L122.914 19.7715V16.223C122.914 15.3805 123.19 14.6837 123.741 14.1328C124.292 13.5495 124.988 13.2579 125.831 13.2579ZM116.012 34.8888C117.438 34.8888 118.685 34.5323 119.755 33.8194C120.824 33.1064 121.651 32.1343 122.234 30.9029C122.85 29.6714 123.157 28.2942 123.157 26.7711C123.157 25.2156 122.85 23.8222 122.234 22.5908C121.651 21.3593 120.824 20.3872 119.755 19.6742C118.685 18.9613 117.438 18.6048 116.012 18.6048C114.619 18.6048 113.387 18.9613 112.318 19.6742C111.248 20.3872 110.406 21.3593 109.79 22.5908C109.207 23.8222 108.915 25.2156 108.915 26.7711C108.915 28.2942 109.207 29.6714 109.79 30.9029C110.406 32.1343 111.248 33.1064 112.318 33.8194C113.387 34.5323 114.619 34.8888 116.012 34.8888ZM136.035 39.7496C135.193 39.7496 134.496 39.4742 133.945 38.9233C133.394 38.34 133.119 37.6271 133.119 36.7845V16.7091C133.119 15.8665 133.394 15.1698 133.945 14.6189C134.496 14.0356 135.193 13.744 136.035 13.744C136.878 13.744 137.575 14.0356 138.126 14.6189C138.676 15.1698 138.952 15.8665 138.952 16.7091V21.2783L138.612 18.0215C138.968 17.2438 139.422 16.5633 139.973 15.98C140.556 15.3643 141.204 14.862 141.917 14.4731C142.63 14.0518 143.391 13.744 144.202 13.5495C145.012 13.3551 145.822 13.2579 146.632 13.2579C147.604 13.2579 148.414 13.5333 149.062 14.0842C149.743 14.6351 150.083 15.2832 150.083 16.0286C150.083 17.098 149.808 17.8757 149.257 18.3618C148.706 18.8155 148.106 19.0423 147.458 19.0423C146.843 19.0423 146.276 18.9289 145.757 18.7021C145.271 18.4752 144.704 18.3618 144.056 18.3618C143.472 18.3618 142.873 18.5076 142.257 18.7993C141.674 19.0585 141.123 19.4798 140.605 20.0631C140.118 20.6464 139.713 21.3755 139.389 22.2505C139.098 23.093 138.952 24.0976 138.952 25.2642V36.7845C138.952 37.6271 138.676 38.34 138.126 38.9233C137.575 39.4742 136.878 39.7496 136.035 39.7496ZM154.001 14.2301H165.521C166.299 14.2301 166.947 14.4893 167.465 15.0078C167.984 15.5263 168.243 16.1744 168.243 16.9521C168.243 17.6975 167.984 18.3294 167.465 18.8479C166.947 19.334 166.299 19.577 165.521 19.577H154.001C153.223 19.577 152.575 19.3178 152.056 18.7993C151.538 18.2808 151.279 17.6327 151.279 16.8549C151.279 16.1096 151.538 15.4939 152.056 15.0078C152.575 14.4893 153.223 14.2301 154.001 14.2301ZM159.202 8.15396C160.045 8.15396 160.725 8.44562 161.244 9.02892C161.794 9.57982 162.07 10.2765 162.07 11.1191V32.75C162.07 33.2037 162.151 33.5763 162.313 33.868C162.507 34.1596 162.75 34.3703 163.042 34.4999C163.366 34.6295 163.706 34.6943 164.063 34.6943C164.452 34.6943 164.808 34.6295 165.132 34.4999C165.456 34.3379 165.829 34.2569 166.25 34.2569C166.704 34.2569 167.109 34.4675 167.465 34.8888C167.854 35.31 168.049 35.8933 168.049 36.6387C168.049 37.546 167.546 38.2914 166.542 38.8747C165.57 39.458 164.517 39.7496 163.382 39.7496C162.702 39.7496 161.94 39.701 161.098 39.6038C160.288 39.4742 159.51 39.1987 158.764 38.7775C158.052 38.3238 157.452 37.6433 156.966 36.7359C156.48 35.8285 156.237 34.5809 156.237 32.993V11.1191C156.237 10.2765 156.512 9.57982 157.063 9.02892C157.646 8.44562 158.359 8.15396 159.202 8.15396ZM177.974 36.7845C177.974 37.6271 177.682 38.34 177.099 38.9233C176.548 39.4742 175.851 39.7496 175.009 39.7496C174.198 39.7496 173.518 39.4742 172.967 38.9233C172.416 38.34 172.141 37.6271 172.141 36.7845V6.74431C172.141 5.90176 172.416 5.20503 172.967 4.65413C173.55 4.07083 174.263 3.77918 175.106 3.77918C175.948 3.77918 176.629 4.07083 177.147 4.65413C177.698 5.20503 177.974 5.90176 177.974 6.74431V36.7845ZM201.397 13.744C202.24 13.744 202.937 14.0356 203.488 14.6189C204.038 15.1698 204.314 15.8665 204.314 16.7091V37.3678C204.314 40.3491 203.747 42.7148 202.613 44.4647C201.511 46.247 200.02 47.527 198.141 48.3048C196.261 49.0825 194.155 49.4714 191.821 49.4714C190.784 49.4714 189.683 49.3904 188.516 49.2283C187.349 49.0663 186.393 48.8233 185.648 48.4992C184.676 48.0779 183.995 47.5432 183.607 46.8951C183.25 46.2794 183.185 45.6151 183.412 44.9022C183.704 43.9624 184.174 43.3143 184.822 42.9578C185.47 42.6338 186.15 42.6014 186.863 42.8606C187.382 43.0226 188.062 43.2657 188.905 43.5897C189.747 43.9462 190.72 44.1244 191.821 44.1244C193.312 44.1244 194.544 43.9138 195.516 43.4925C196.52 43.1036 197.266 42.4231 197.752 41.4509C198.27 40.5112 198.529 39.2149 198.529 37.5622V34.3055L199.55 35.4721C198.999 36.5415 198.303 37.4326 197.46 38.1456C196.65 38.8261 195.678 39.3446 194.544 39.701C193.409 40.0575 192.113 40.2357 190.655 40.2357C188.937 40.2357 187.43 39.8469 186.134 39.0691C184.87 38.259 183.882 37.1572 183.169 35.7637C182.456 34.3379 182.1 32.7176 182.1 30.9029V16.7091C182.1 15.8665 182.375 15.1698 182.926 14.6189C183.477 14.0356 184.174 13.744 185.016 13.744C185.859 13.744 186.556 14.0356 187.106 14.6189C187.657 15.1698 187.933 15.8665 187.933 16.7091V29.1529C187.933 31.2593 188.386 32.75 189.294 33.6249C190.234 34.4675 191.53 34.8888 193.182 34.8888C194.317 34.8888 195.273 34.6781 196.05 34.2569C196.828 33.8032 197.428 33.1551 197.849 32.3125C198.27 31.4375 198.481 30.3844 198.481 29.1529V16.7091C198.481 15.8665 198.756 15.1698 199.307 14.6189C199.858 14.0356 200.555 13.744 201.397 13.744Z" fill="#16333B"/>
<path d="M20 0C16.1168 0 12.9688 3.22611 12.9688 7.1094C12.9688 10.9927 16.1167 14.1407 20 14.1407C23.8833 14.1407 27.0313 10.9927 27.0313 7.1094C27.0313 3.22611 23.8832 0 20 0Z" fill="#16333B"/>
<path d="M25.2391 24.1798C22.1846 24.1798 21.1398 27.8247 21.1295 27.8614C21.1263 27.8725 21.1145 27.8775 21.111 27.8885C21.111 27.8884 21.1113 27.8884 21.1113 27.8882C20.9602 28.3773 20.5173 28.7162 20.0034 28.7185C20.0022 28.7185 20.0011 28.7185 19.9987 28.7185C19.4758 28.7185 19.0157 28.3694 18.8715 27.8659C18.8291 27.7148 17.7866 24.1797 14.7608 24.1797C12.4411 24.1797 10.6924 26.1206 10.6924 28.6956C10.6924 31.7604 13.4561 34.8362 18.0361 38.702C18.427 39.0315 18.8291 39.3708 19.2413 39.7211C19.6782 40.0922 20.3204 40.0933 20.7574 39.7223C21.1694 39.3726 21.5707 39.034 21.9603 38.7042C25.4446 35.7649 29.3075 31.9862 29.3075 28.6954C29.3075 26.1207 27.5589 24.1798 25.2391 24.1798Z" fill="#16333B"/>
<path d="M25.9767 14.2579C24.3595 15.6408 22.297 16.4844 20.0001 16.4844C17.7032 16.4844 15.6407 15.6407 14.0235 14.2579C7.46096 14.914 2.42188 20.4297 2.42188 27.1095V28.7501C2.42188 32.547 3.89844 36.1094 6.57041 38.7813C6.57041 38.8048 6.57041 38.8048 6.59384 38.8048C7.32041 39.5313 8.32823 39.9532 9.35948 39.9766C11.0731 39.9338 12.4593 38.6337 12.6875 36.9615C10.503 34.7172 8.34877 31.8415 8.34877 28.6956C8.34877 24.6923 11.4074 21.8359 14.75 21.8359C14.7523 21.8359 14.754 21.8363 14.7564 21.8363C14.7579 21.8363 14.7593 21.8359 14.761 21.8359C16.9667 21.8359 18.8097 23.0492 20.0012 24.824C21.2039 23.0323 22.9969 21.8359 25.2392 21.8359C25.2408 21.8359 25.2422 21.8363 25.2438 21.8363C25.2461 21.8363 25.2478 21.8359 25.2502 21.8359C28.8011 21.8359 31.6514 24.8818 31.6514 28.6956C31.541 28.9924 32.1269 31.8823 27.3096 36.9301C27.5247 38.6171 28.9164 39.9334 30.6408 39.9766C31.6721 39.9532 32.6799 39.5313 33.4065 38.8048C33.4299 38.8048 33.4299 38.8048 33.4299 38.7813C36.1017 36.1094 37.5783 32.547 37.5783 28.7501V27.1095C37.5783 20.4297 32.5391 14.914 25.9767 14.2579Z" fill="#16333B"/>
</svg>
