<svg width="206" height="50" viewBox="0 0 206 50" fill="none" xmlns="http://www.w3.org/2000/svg">
<path d="M46.2273 5.97388C47.0051 5.97388 47.6856 6.26554 48.2689 6.84884C48.8846 7.39974 49.1925 8.09647 49.1925 8.93902V37.0349C49.1925 37.8774 48.8846 38.5903 48.2689 39.1737C47.6532 39.7246 46.9402 40 46.1301 40C45.2227 40 44.4936 39.7246 43.9427 39.1737C43.3918 38.5903 43.1164 37.8774 43.1164 37.0349V8.93902C43.1164 8.09647 43.408 7.39974 43.9913 6.84884C44.5746 6.26554 45.32 5.97388 46.2273 5.97388ZM67.761 5.97388C68.6684 5.97388 69.3975 6.26554 69.9484 6.84884C70.4993 7.39974 70.7747 8.09647 70.7747 8.93902V37.0349C70.7747 37.8774 70.4831 38.5903 69.8998 39.1737C69.3489 39.7246 68.6035 40 67.6638 40C66.886 40 66.1893 39.7246 65.5736 39.1737C64.9903 38.5903 64.6986 37.8774 64.6986 37.0349V8.93902C64.6986 8.09647 65.0065 7.39974 65.6222 6.84884C66.2379 6.26554 66.9508 5.97388 67.761 5.97388ZM46.0815 20.119H67.761V25.709H46.0815V20.119ZM87.8728 40.4861C85.1184 40.4861 82.7203 39.919 80.6788 38.7848C78.6696 37.6182 77.1141 36.0465 76.0123 34.0697C74.9429 32.093 74.4082 29.857 74.4082 27.3617C74.4082 24.4452 74.9915 21.9662 76.1581 19.9246C77.3572 17.8506 78.9126 16.2627 80.8246 15.1609C82.7365 14.0591 84.7619 13.5082 86.9007 13.5082C88.5534 13.5082 90.1088 13.8485 91.5671 14.529C93.0578 15.2095 94.3702 16.1493 95.5044 17.3483C96.6386 18.5149 97.5298 19.876 98.1779 21.4315C98.8584 22.9869 99.1987 24.6396 99.1987 26.3896C99.1663 27.1673 98.8584 27.7992 98.2751 28.2853C97.6918 28.7714 97.0113 29.0144 96.2336 29.0144H77.665L76.2068 24.1536H94.0462L92.9768 25.1257V23.8133C92.912 22.8735 92.5717 22.031 91.956 21.2856C91.3727 20.5403 90.6273 19.957 89.72 19.5357C88.845 19.082 87.9053 18.8552 86.9007 18.8552C85.9285 18.8552 85.0211 18.9848 84.1786 19.2441C83.336 19.5033 82.6069 19.9408 81.9912 20.5565C81.3755 21.1722 80.8894 21.9986 80.5329 23.0356C80.1765 24.0725 79.9982 25.385 79.9982 26.9729C79.9982 28.7228 80.3547 30.2134 81.0676 31.4449C81.813 32.6439 82.7527 33.5674 83.8869 34.2156C85.0535 34.8313 86.285 35.1391 87.5812 35.1391C88.7802 35.1391 89.7362 35.0419 90.4491 34.8475C91.162 34.653 91.7291 34.4262 92.1504 34.167C92.6041 33.8753 93.0092 33.6323 93.3656 33.4378C93.9489 33.1462 94.4998 33.0003 95.0183 33.0003C95.7313 33.0003 96.3146 33.2434 96.7682 33.7295C97.2543 34.2156 97.4974 34.7827 97.4974 35.4308C97.4974 36.3057 97.0437 37.0997 96.1363 37.8126C95.2938 38.5255 94.111 39.1574 92.5879 39.7083C91.0648 40.2268 89.4931 40.4861 87.8728 40.4861ZM123.831 13.5082C124.674 13.5082 125.37 13.7837 125.921 14.3346C126.472 14.8855 126.748 15.5984 126.748 16.4734V37.0349C126.748 37.8774 126.472 38.5903 125.921 39.1737C125.37 39.7246 124.674 40 123.831 40C122.989 40 122.292 39.7246 121.741 39.1737C121.19 38.5903 120.915 37.8774 120.915 37.0349V34.653L121.984 35.0905C121.984 35.5118 121.757 36.0303 121.304 36.646C120.85 37.2293 120.234 37.8126 119.456 38.3959C118.679 38.9792 117.755 39.4815 116.686 39.9028C115.649 40.2917 114.514 40.4861 113.283 40.4861C111.047 40.4861 109.022 39.919 107.207 38.7848C105.392 37.6182 103.95 36.0303 102.881 34.0211C101.844 31.9796 101.325 29.6463 101.325 27.0215C101.325 24.3642 101.844 22.031 102.881 20.0218C103.95 17.9802 105.376 16.3924 107.158 15.2582C108.941 14.0915 110.917 13.5082 113.089 13.5082C114.482 13.5082 115.762 13.7189 116.929 14.1402C118.095 14.5614 119.1 15.0961 119.942 15.7442C120.817 16.3924 121.482 17.0567 121.935 17.7372C122.422 18.3853 122.665 18.9362 122.665 19.3899L120.915 20.0218V16.4734C120.915 15.6308 121.19 14.9341 121.741 14.3832C122.292 13.7999 122.989 13.5082 123.831 13.5082ZM114.012 35.1391C115.438 35.1391 116.686 34.7827 117.755 34.0697C118.824 33.3568 119.651 32.3846 120.234 31.1532C120.85 29.9218 121.158 28.5445 121.158 27.0215C121.158 25.466 120.85 24.0725 120.234 22.8411C119.651 21.6097 118.824 20.6375 117.755 19.9246C116.686 19.2117 115.438 18.8552 114.012 18.8552C112.619 18.8552 111.387 19.2117 110.318 19.9246C109.249 20.6375 108.406 21.6097 107.79 22.8411C107.207 24.0725 106.915 25.466 106.915 27.0215C106.915 28.5445 107.207 29.9218 107.79 31.1532C108.406 32.3846 109.249 33.3568 110.318 34.0697C111.387 34.7827 112.619 35.1391 114.012 35.1391ZM134.036 40C133.193 40 132.496 39.7246 131.945 39.1737C131.394 38.5903 131.119 37.8774 131.119 37.0349V16.9595C131.119 16.1169 131.394 15.4202 131.945 14.8693C132.496 14.286 133.193 13.9943 134.036 13.9943C134.878 13.9943 135.575 14.286 136.126 14.8693C136.677 15.4202 136.952 16.1169 136.952 16.9595V21.5287L136.612 18.2719C136.968 17.4942 137.422 16.8136 137.973 16.2303C138.556 15.6146 139.204 15.1123 139.917 14.7235C140.63 14.3022 141.392 13.9943 142.202 13.7999C143.012 13.6055 143.822 13.5082 144.632 13.5082C145.604 13.5082 146.415 13.7837 147.063 14.3346C147.743 14.8855 148.083 15.5336 148.083 16.2789C148.083 17.3483 147.808 18.1261 147.257 18.6122C146.706 19.0658 146.107 19.2927 145.459 19.2927C144.843 19.2927 144.276 19.1793 143.757 18.9524C143.271 18.7256 142.704 18.6122 142.056 18.6122C141.473 18.6122 140.873 18.758 140.257 19.0496C139.674 19.3089 139.123 19.7302 138.605 20.3135C138.119 20.8968 137.714 21.6259 137.39 22.5009C137.098 23.3434 136.952 24.348 136.952 25.5146V37.0349C136.952 37.8774 136.677 38.5903 136.126 39.1737C135.575 39.7246 134.878 40 134.036 40ZM152.001 14.4804H163.521C164.299 14.4804 164.947 14.7397 165.466 15.2582C165.984 15.7766 166.243 16.4248 166.243 17.2026C166.243 17.9478 165.984 18.5798 165.466 19.0982C164.947 19.5843 164.299 19.8274 163.521 19.8274H152.001C151.223 19.8274 150.575 19.5681 150.057 19.0496C149.538 18.5311 149.279 17.883 149.279 17.1053C149.279 16.36 149.538 15.7442 150.057 15.2582C150.575 14.7397 151.223 14.4804 152.001 14.4804ZM157.202 8.40432C158.045 8.40432 158.725 8.69597 159.244 9.27928C159.795 9.83018 160.07 10.5269 160.07 11.3695V33.0003C160.07 33.454 160.151 33.8267 160.313 34.1183C160.508 34.41 160.751 34.6206 161.042 34.7503C161.366 34.8799 161.707 34.9447 162.063 34.9447C162.452 34.9447 162.808 34.8799 163.132 34.7503C163.457 34.5882 163.829 34.5072 164.25 34.5072C164.704 34.5072 165.109 34.7179 165.466 35.1391C165.855 35.5604 166.049 36.1437 166.049 36.889C166.049 37.7964 165.547 38.5417 164.542 39.125C163.57 39.7083 162.517 40 161.383 40C160.702 40 159.94 39.9514 159.098 39.8542C158.288 39.7246 157.51 39.4491 156.765 39.0278C156.052 38.5741 155.452 37.8936 154.966 36.9863C154.48 36.0789 154.237 34.8313 154.237 33.2434V11.3695C154.237 10.5269 154.513 9.83018 155.063 9.27928C155.647 8.69597 156.36 8.40432 157.202 8.40432ZM175.974 37.0349C175.974 37.8774 175.682 38.5903 175.099 39.1737C174.548 39.7246 173.851 40 173.009 40C172.199 40 171.518 39.7246 170.967 39.1737C170.416 38.5903 170.141 37.8774 170.141 37.0349V6.99467C170.141 6.15212 170.416 5.45539 170.967 4.90449C171.551 4.32119 172.263 4.02954 173.106 4.02954C173.949 4.02954 174.629 4.32119 175.148 4.90449C175.698 5.45539 175.974 6.15212 175.974 6.99467V37.0349ZM199.398 13.9943C200.24 13.9943 200.937 14.286 201.488 14.8693C202.039 15.4202 202.314 16.1169 202.314 16.9595V37.6182C202.314 40.5995 201.747 42.9651 200.613 44.715C199.511 46.4974 198.02 47.7774 196.141 48.5551C194.261 49.3329 192.155 49.7217 189.822 49.7217C188.785 49.7217 187.683 49.6407 186.516 49.4787C185.35 49.3167 184.394 49.0736 183.648 48.7496C182.676 48.3283 181.996 47.7936 181.607 47.1455C181.25 46.5298 181.186 45.8655 181.412 45.1525C181.704 44.2128 182.174 43.5646 182.822 43.2082C183.47 42.8841 184.151 42.8517 184.864 43.111C185.382 43.273 186.063 43.516 186.905 43.8401C187.748 44.1966 188.72 44.3748 189.822 44.3748C191.312 44.3748 192.544 44.1641 193.516 43.7429C194.521 43.354 195.266 42.6735 195.752 41.7013C196.27 40.7615 196.53 39.4653 196.53 37.8126V34.5558L197.55 35.7224C197 36.7918 196.303 37.683 195.46 38.3959C194.65 39.0764 193.678 39.5949 192.544 39.9514C191.41 40.3079 190.113 40.4861 188.655 40.4861C186.938 40.4861 185.431 40.0972 184.134 39.3195C182.871 38.5093 181.882 37.4075 181.169 36.0141C180.456 34.5882 180.1 32.9679 180.1 31.1532V16.9595C180.1 16.1169 180.375 15.4202 180.926 14.8693C181.477 14.286 182.174 13.9943 183.016 13.9943C183.859 13.9943 184.556 14.286 185.107 14.8693C185.658 15.4202 185.933 16.1169 185.933 16.9595V29.4033C185.933 31.5097 186.387 33.0003 187.294 33.8753C188.234 34.7179 189.53 35.1391 191.183 35.1391C192.317 35.1391 193.273 34.9285 194.051 34.5072C194.828 34.0535 195.428 33.4054 195.849 32.5629C196.27 31.6879 196.481 30.6347 196.481 29.4033V16.9595C196.481 16.1169 196.757 15.4202 197.307 14.8693C197.858 14.286 198.555 13.9943 199.398 13.9943Z" fill="white"/>
<g clip-path="url(#clip0_4_2069)">
<path d="M18 0C14.1168 0 10.9688 3.22611 10.9688 7.1094C10.9688 10.9927 14.1167 14.1407 18 14.1407C21.8833 14.1407 25.0313 10.9927 25.0313 7.1094C25.0313 3.22611 21.8832 0 18 0Z" fill="#FCDF50"/>
<path d="M23.2381 24.1798C20.1836 24.1798 19.1388 27.8247 19.1285 27.8614C19.1254 27.8725 19.1135 27.8775 19.11 27.8885C19.11 27.8884 19.1104 27.8884 19.1104 27.8882C18.9592 28.3773 18.5163 28.7162 18.0024 28.7185C18.0012 28.7185 18.0001 28.7185 17.9978 28.7185C17.4748 28.7185 17.0147 28.3694 16.8705 27.8659C16.8282 27.7148 15.7856 24.1797 12.7598 24.1797C10.4401 24.1797 8.69141 26.1206 8.69141 28.6956C8.69141 31.7604 11.4552 34.8362 16.0351 38.702C16.426 39.0315 16.8281 39.3708 17.2403 39.7211C17.6772 40.0922 18.3194 40.0933 18.7564 39.7223C19.1684 39.3726 19.5697 39.034 19.9593 38.7042C23.4437 35.7649 27.3065 31.9862 27.3065 28.6954C27.3065 26.1207 25.5579 24.1798 23.2381 24.1798Z" fill="#FCDF50"/>
<path d="M23.9767 14.2579C22.3595 15.6408 20.297 16.4844 18.0001 16.4844C15.7032 16.4844 13.6407 15.6407 12.0235 14.2579C5.46096 14.914 0.421875 20.4297 0.421875 27.1095V28.7501C0.421875 32.547 1.89844 36.1094 4.57041 38.7813C4.57041 38.8048 4.57041 38.8048 4.59384 38.8048C5.32041 39.5313 6.32823 39.9532 7.35948 39.9766C9.07308 39.9338 10.4593 38.6337 10.6875 36.9615C8.503 34.7172 6.34877 31.8415 6.34877 28.6956C6.34877 24.6923 9.40738 21.8359 12.75 21.8359C12.7523 21.8359 12.754 21.8363 12.7564 21.8363C12.7579 21.8363 12.7593 21.8359 12.761 21.8359C14.9667 21.8359 16.8097 23.0492 18.0012 24.824C19.2039 23.0323 20.9969 21.8359 23.2392 21.8359C23.2408 21.8359 23.2422 21.8363 23.2438 21.8363C23.2461 21.8363 23.2478 21.8359 23.2502 21.8359C26.8011 21.8359 29.6514 24.8818 29.6514 28.6956C29.541 28.9924 30.1269 31.8823 25.3096 36.9301C25.5247 38.6171 26.9164 39.9334 28.6408 39.9766C29.6721 39.9532 30.6799 39.5313 31.4065 38.8048C31.4299 38.8048 31.4299 38.8048 31.4299 38.7813C34.1017 36.1094 35.5783 32.547 35.5783 28.7501V27.1095C35.5783 20.4297 30.5391 14.914 23.9767 14.2579Z" fill="#FCDF50"/>
</g>
<defs>
<clipPath id="clip0_4_2069">
<rect width="36" height="40" fill="white"/>
</clipPath>
</defs>
</svg>
