<svg width="16" height="16" viewBox="0 0 16 16" fill="none" xmlns="http://www.w3.org/2000/svg">
<path d="M1.64062 7.02688C1.32997 7.02775 1.02591 7.11656 0.763617 7.28303C0.501328 7.4495 0.291529 7.68683 0.158494 7.96756C0.0254585 8.24829 -0.0253772 8.56094 0.0118682 8.86936C0.0491136 9.17778 0.172918 9.46935 0.368958 9.71033L4.54807 14.8297C4.69708 15.0148 4.88808 15.1616 5.10521 15.2579C5.32235 15.3543 5.55934 15.3975 5.79651 15.3839C6.30377 15.3567 6.76173 15.0853 7.05371 14.6392L15.7348 0.658273C15.7362 0.655954 15.7377 0.653635 15.7392 0.65135C15.8207 0.526285 15.7943 0.278439 15.6261 0.122739C15.58 0.0799816 15.5255 0.0471323 15.4661 0.0262137C15.4068 0.00529509 15.3438 -0.00324986 15.281 0.00110529C15.2182 0.00546043 15.157 0.0226235 15.1011 0.0515372C15.0451 0.0804509 14.9958 0.120503 14.9559 0.169227C14.9528 0.173058 14.9496 0.176831 14.9463 0.180546L6.1913 10.0724C6.15799 10.11 6.11753 10.1407 6.07227 10.1625C6.02701 10.1844 5.97786 10.1971 5.92766 10.1998C5.87747 10.2026 5.82724 10.1952 5.77988 10.1784C5.73253 10.1615 5.689 10.1354 5.65182 10.1016L2.7462 7.45743C2.44443 7.18079 2.05 7.02719 1.64062 7.02688Z" fill="#16333B"/>
</svg>
