<svg width="24" height="27" viewBox="0 0 24 27" fill="none" xmlns="http://www.w3.org/2000/svg">
<path d="M5.75143 0.0435725C5.96875 -0.0221195 6.20326 0.00109386 6.40349 0.108118C6.60372 0.215142 6.75331 0.397234 6.81943 0.61443L7.31829 2.25329C8.71102 1.34567 10.3376 0.862631 12 0.863001C13.7263 0.863001 15.336 1.37386 16.6817 2.25329L17.1789 0.61443C17.2109 0.505981 17.264 0.40494 17.3353 0.317127C17.4065 0.229314 17.4944 0.156464 17.5939 0.102776C17.6935 0.0490873 17.8026 0.0156206 17.9151 0.00430361C18.0276 -0.00701333 18.1413 0.00404318 18.2495 0.0368363C18.3577 0.0696293 18.4584 0.123511 18.5457 0.195377C18.633 0.267242 18.7052 0.355672 18.7582 0.455571C18.8111 0.55547 18.8438 0.664864 18.8543 0.777451C18.8649 0.890038 18.853 1.00359 18.8194 1.11157L18.1166 3.42929C19.69 5.03206 20.5715 7.1884 20.5714 9.43443H21.4286C21.6559 9.43443 21.8739 9.34412 22.0347 9.18338C22.1954 9.02263 22.2857 8.80462 22.2857 8.57729V7.72014C22.2857 7.49282 22.376 7.2748 22.5368 7.11405C22.6975 6.95331 22.9155 6.863 23.1429 6.863C23.3702 6.863 23.5882 6.95331 23.7489 7.11405C23.9097 7.2748 24 7.49282 24 7.72014V8.57729C24 9.25927 23.7291 9.91333 23.2468 10.3956C22.7646 10.8778 22.1106 11.1487 21.4286 11.1487H20.5714V12.863H23.1429C23.3702 12.863 23.5882 12.9533 23.7489 13.1141C23.9097 13.2748 24 13.4928 24 13.7201C24 13.9475 23.9097 14.1655 23.7489 14.3262C23.5882 14.487 23.3702 14.5773 23.1429 14.5773H20.5714V16.2916H21.4286C22.1106 16.2916 22.7646 16.5625 23.2468 17.0447C23.7291 17.527 24 18.181 24 18.863V19.7201C24 19.9475 23.9097 20.1655 23.7489 20.3262C23.5882 20.487 23.3702 20.5773 23.1429 20.5773C22.9155 20.5773 22.6975 20.487 22.5368 20.3262C22.376 20.1655 22.2857 19.9475 22.2857 19.7201V18.863C22.2857 18.6357 22.1954 18.4177 22.0347 18.2569C21.8739 18.0962 21.6559 18.0059 21.4286 18.0059H20.5714C20.5714 20.2791 19.6684 22.4593 18.0609 24.0668C16.4535 25.6742 14.2733 26.5773 12 26.5773C9.72672 26.5773 7.54654 25.6742 5.93908 24.0668C4.33163 22.4593 3.42857 20.2791 3.42857 18.0059H2.57143C2.3441 18.0059 2.12608 18.0962 1.96534 18.2569C1.80459 18.4177 1.71429 18.6357 1.71429 18.863V19.7201C1.71429 19.9475 1.62398 20.1655 1.46323 20.3262C1.30249 20.487 1.08447 20.5773 0.857143 20.5773C0.629814 20.5773 0.411797 20.487 0.251051 20.3262C0.0903058 20.1655 0 19.9475 0 19.7201V18.863C0 18.181 0.270918 17.527 0.753154 17.0447C1.23539 16.5625 1.88944 16.2916 2.57143 16.2916H3.42857V14.5773H0.857143C0.629814 14.5773 0.411797 14.487 0.251051 14.3262C0.0903058 14.1655 0 13.9475 0 13.7201C0 13.4928 0.0903058 13.2748 0.251051 13.1141C0.411797 12.9533 0.629814 12.863 0.857143 12.863H3.42857V11.1487H2.57143C1.88944 11.1487 1.23539 10.8778 0.753154 10.3956C0.270918 9.91333 0 9.25927 0 8.57729V7.72014C0 7.49282 0.0903058 7.2748 0.251051 7.11405C0.411797 6.95331 0.629814 6.863 0.857143 6.863C1.08447 6.863 1.30249 6.95331 1.46323 7.11405C1.62398 7.2748 1.71429 7.49282 1.71429 7.72014V8.57729C1.71429 8.80462 1.80459 9.02263 1.96534 9.18338C2.12608 9.34412 2.3441 9.43443 2.57143 9.43443H3.42857C3.42857 7.09614 4.36629 4.97557 5.88343 3.42929L5.18057 1.11157C5.11488 0.894247 5.13809 0.659737 5.24512 0.459508C5.35214 0.25928 5.53423 0.109691 5.75143 0.0435725ZM5.14286 11.1487V18.0059C5.14228 19.6764 5.75159 21.2898 6.85636 22.5429C7.96114 23.796 9.48538 24.6027 11.1429 24.8116V11.1487H5.14286ZM12.8571 11.1487V24.8116C14.5146 24.6027 16.0389 23.796 17.1436 22.5429C18.2484 21.2898 18.8577 19.6764 18.8571 18.0059V11.1487H12.8571ZM18.8571 9.43443C18.8571 8.4694 18.6534 7.51524 18.2594 6.63433C17.8653 5.75343 17.2897 4.96562 16.5703 4.32243C15.315 3.19577 13.6868 2.57406 12 2.57729C10.3126 2.57363 8.68377 3.19538 7.428 4.32243C6.70888 4.96578 6.13363 5.75365 5.73985 6.63455C5.34608 7.51544 5.14265 8.46953 5.14286 9.43443H18.8571Z" fill="#384744"/>
</svg>
