<svg width="24" height="24" viewBox="0 0 24 24" fill="none" xmlns="http://www.w3.org/2000/svg">
<path d="M12 22.5C9.21523 22.5 6.54451 21.3938 4.57538 19.4246C2.60625 17.4555 1.5 14.7848 1.5 12C1.5 9.21523 2.60625 6.54451 4.57538 4.57538C6.54451 2.60625 9.21523 1.5 12 1.5C14.7848 1.5 17.4555 2.60625 19.4246 4.57538C21.3938 6.54451 22.5 9.21523 22.5 12C22.5 14.7848 21.3938 17.4555 19.4246 19.4246C17.4555 21.3938 14.7848 22.5 12 22.5ZM12 24C15.1826 24 18.2348 22.7357 20.4853 20.4853C22.7357 18.2348 24 15.1826 24 12C24 8.8174 22.7357 5.76516 20.4853 3.51472C18.2348 1.26428 15.1826 0 12 0C8.8174 0 5.76516 1.26428 3.51472 3.51472C1.26428 5.76516 0 8.8174 0 12C0 15.1826 1.26428 18.2348 3.51472 20.4853C5.76516 22.7357 8.8174 24 12 24Z" fill="#384744"/>
<path d="M6.42869 14.3505C6.60095 14.251 6.80566 14.2241 6.99779 14.2756C7.18992 14.3271 7.35373 14.4527 7.45319 14.625C7.91409 15.4233 8.57705 16.0862 9.37542 16.547C10.1738 17.0078 11.0794 17.2502 12.0012 17.25C12.923 17.2502 13.8286 17.0078 14.627 16.547C15.4253 16.0862 16.0883 15.4233 16.5492 14.625C16.5981 14.539 16.6635 14.4636 16.7417 14.4029C16.8198 14.3423 16.9092 14.2978 17.0047 14.2719C17.1001 14.246 17.1998 14.2392 17.2978 14.2519C17.3959 14.2647 17.4905 14.2967 17.5762 14.3462C17.6618 14.3956 17.7369 14.4615 17.797 14.5401C17.857 14.6187 17.901 14.7084 17.9263 14.804C17.9515 14.8996 17.9577 14.9993 17.9443 15.0973C17.9309 15.1953 17.8982 15.2897 17.8482 15.375C17.2556 16.4013 16.4033 17.2536 15.3769 17.846C14.3506 18.4385 13.1863 18.7502 12.0012 18.75C10.8161 18.7502 9.65182 18.4385 8.62544 17.846C7.59905 17.2536 6.74674 16.4013 6.15419 15.375C6.05474 15.2027 6.02779 14.998 6.07927 14.8059C6.13074 14.6138 6.25644 14.45 6.42869 14.3505ZM10.5012 9.75C10.5012 10.992 9.82919 12 9.00119 12C8.17319 12 7.50119 10.992 7.50119 9.75C7.50119 8.508 8.17319 7.5 9.00119 7.5C9.82919 7.5 10.5012 8.508 10.5012 9.75ZM16.5012 9.75C16.5012 10.992 15.8292 12 15.0012 12C14.1732 12 13.5012 10.992 13.5012 9.75C13.5012 8.508 14.1732 7.5 15.0012 7.5C15.8292 7.5 16.5012 8.508 16.5012 9.75Z" fill="#384744"/>
</svg>
