<svg width="34" height="32" viewBox="0 0 34 32" fill="none" xmlns="http://www.w3.org/2000/svg">
<path d="M3.33333 31.6667H19.3667C20.3285 31.6672 21.279 31.4593 22.1527 31.0574C23.0265 30.6555 23.8029 30.069 24.4283 29.3383L32.9317 19.4183C33.1097 19.211 33.2341 18.963 33.2937 18.6963C33.3533 18.4295 33.3465 18.1522 33.2737 17.8888C33.2009 17.6253 33.0645 17.3838 32.8764 17.1855C32.6882 16.9872 32.4543 16.8382 32.195 16.7517L28.915 15.6583C28.1223 15.4007 27.2782 15.3424 26.4576 15.4886C25.6369 15.6348 24.865 15.9811 24.21 16.4967L18.9017 20.7417L17.8733 18.6833C17.3224 17.5738 16.4718 16.6407 15.4179 15.9897C14.3639 15.3387 13.1488 14.9959 11.91 15H3.33333C1.495 15 0 16.495 0 18.3333V28.3333C0 30.1717 1.495 31.6667 3.33333 31.6667ZM3.33333 18.3333H11.91C13.1817 18.3333 14.3233 19.0383 14.8917 20.175L15.6367 21.6667H8.33333V25H18.3567C18.6131 24.9966 18.8652 24.9339 19.0933 24.8167L19.0983 24.815L19.105 24.8117H19.11L19.1133 24.81H19.12L19.1217 24.8083C19.1367 24.8133 19.1267 24.8067 19.1267 24.8067C19.1433 24.8067 19.13 24.805 19.13 24.805H19.1317L19.135 24.8033L19.14 24.8017L19.1433 24.8L19.1467 24.7983L19.1517 24.7967L19.155 24.795C19.16 24.795 19.1583 24.7933 19.1583 24.7933L19.1633 24.79L19.1667 24.7883L19.17 24.7867L19.175 24.785L19.1783 24.7833H19.18L19.1833 24.7817L19.1883 24.78L19.1917 24.7783C19.2067 24.7767 19.1967 24.7767 19.1967 24.7767L19.2 24.775C19.2642 24.7362 19.3255 24.6928 19.3833 24.645L26.2933 19.1167C26.73 18.77 27.3317 18.6617 27.86 18.8383L28.7883 19.1483L21.9 27.1867C21.5831 27.5465 21.1934 27.8348 20.7566 28.0325C20.3199 28.2301 19.8461 28.3327 19.3667 28.3333H3.33333V18.3333ZM23.3333 1.56762e-05H23.305C23.0333 0.00334901 21.6283 0.0650155 20 1.17502C18.415 0.0950156 17.0433 0.00834889 16.72 0.00168222L16.67 1.56762e-05H16.6633C15.3283 1.56762e-05 14.0717 0.521682 13.1317 1.46335C12.1883 2.40835 11.6667 3.66335 11.6667 5.00001C11.6667 6.33668 12.1883 7.59168 13.1017 8.50668L18.7917 14.4833C18.9482 14.6459 19.136 14.7751 19.3437 14.8633C19.5513 14.9516 19.7747 14.997 20.0004 14.9968C20.226 14.9966 20.4493 14.9509 20.6569 14.8624C20.8644 14.7739 21.052 14.6444 21.2083 14.4817L26.8683 8.53501C27.8133 7.59168 28.3333 6.33668 28.3333 5.00001C28.3333 3.66335 27.8117 2.40835 26.87 1.46502C26.4072 0.999258 25.8566 0.629947 25.2501 0.378475C24.6436 0.127002 23.9932 -0.00163443 23.3367 1.56762e-05H23.3333ZM25 5.00001C25 5.44501 24.8267 5.86335 24.4817 6.20835L20 10.9167L15.4883 6.17835C15.1733 5.86335 15 5.44501 15 5.00001C15 4.55502 15.1733 4.13668 15.49 3.82001C15.7914 3.51344 16.2018 3.3385 16.6317 3.33335C16.6733 3.33502 17.4683 3.38668 18.41 4.14168C18.545 4.25002 18.6817 4.37335 18.8217 4.51168L20 5.69001L21.1783 4.51168C21.3183 4.37335 21.455 4.25002 21.59 4.14168C22.4717 3.43335 23.2167 3.34502 23.3433 3.33502C23.5606 3.33497 23.7756 3.37796 23.9762 3.46149C24.1767 3.54502 24.3587 3.66744 24.5117 3.82168C24.8267 4.13668 25 4.55502 25 5.00001Z" fill="#16333B"/>
</svg>
