<svg width="24" height="23" viewBox="0 0 24 23" fill="none" xmlns="http://www.w3.org/2000/svg">
<path d="M6.22961 16.5409C6.32312 16.5721 6.40957 16.6214 6.48402 16.686C6.55846 16.7506 6.61944 16.8293 6.66347 16.9175C6.70749 17.0057 6.73371 17.1017 6.7406 17.2C6.7475 17.2983 6.73495 17.3971 6.70367 17.4906L5.95358 19.7408C5.88529 19.9224 5.74929 20.0705 5.57415 20.154C5.39901 20.2374 5.19834 20.2498 5.01429 20.1884C4.83023 20.1271 4.67711 19.9968 4.58707 19.8249C4.49703 19.6531 4.47708 19.453 4.5314 19.2668L5.28149 17.0165C5.34417 16.8277 5.47927 16.6716 5.65707 16.5824C5.83487 16.4932 6.04082 16.4783 6.22961 16.5409ZM10.7302 16.5409C10.8237 16.5721 10.9101 16.6214 10.9846 16.686C11.059 16.7506 11.12 16.8293 11.164 16.9175C11.2081 17.0057 11.2343 17.1017 11.2412 17.2C11.2481 17.2983 11.2355 17.3971 11.2042 17.4906L9.70405 21.9911C9.63576 22.1727 9.49976 22.3208 9.32462 22.4042C9.14948 22.4877 8.94881 22.5 8.76476 22.4387C8.58071 22.3773 8.42758 22.2471 8.33754 22.0752C8.2475 21.9034 8.22755 21.7033 8.28187 21.5171L9.78206 17.0165C9.84474 16.8277 9.97984 16.6716 10.1576 16.5824C10.3354 16.4932 10.5414 16.4783 10.7302 16.5409ZM15.2307 16.5409C15.3243 16.5721 15.4107 16.6214 15.4851 16.686C15.5596 16.7506 15.6206 16.8293 15.6646 16.9175C15.7086 17.0057 15.7348 17.1017 15.7417 17.2C15.7486 17.2983 15.7361 17.3971 15.7048 17.4906L14.9547 19.7408C14.8864 19.9224 14.7504 20.0705 14.5753 20.154C14.4001 20.2374 14.1995 20.2498 14.0154 20.1884C13.8314 20.1271 13.6782 19.9968 13.5882 19.8249C13.4982 19.6531 13.4782 19.453 13.5325 19.2668L14.2826 17.0165C14.3453 16.8277 14.4804 16.6716 14.6582 16.5824C14.836 16.4932 15.042 16.4783 15.2307 16.5409ZM19.7313 16.5409C19.8248 16.5721 19.9113 16.6214 19.9857 16.686C20.0602 16.7506 20.1211 16.8293 20.1652 16.9175C20.2092 17.0057 20.2354 17.1017 20.2423 17.2C20.2492 17.2983 20.2367 17.3971 20.2054 17.4906L18.7052 21.9911C18.6769 22.088 18.6294 22.1782 18.5655 22.2562C18.5016 22.3343 18.4226 22.3987 18.3332 22.4455C18.2438 22.4923 18.1459 22.5207 18.0454 22.5288C17.9448 22.5369 17.8436 22.5246 17.7479 22.4927C17.6522 22.4608 17.5639 22.4099 17.4883 22.3431C17.4127 22.2762 17.3513 22.1948 17.3079 22.1038C17.2645 22.0127 17.24 21.9138 17.2357 21.8129C17.2314 21.7121 17.2475 21.6115 17.283 21.5171L18.7832 17.0165C18.8459 16.8277 18.981 16.6716 19.1588 16.5824C19.3366 16.4932 19.5425 16.4783 19.7313 16.5409ZM20.1019 6.04261C19.7903 4.47215 18.9846 3.04255 17.8024 1.96281C16.6202 0.883081 15.1236 0.209854 13.5314 0.0415671C11.9392 -0.12672 10.3349 0.21876 8.95315 1.02749C7.57136 1.83623 6.48453 3.06579 5.85156 4.53642C5.14173 4.45465 4.42268 4.51861 3.73843 4.7244C3.05417 4.93019 2.41912 5.27348 1.87216 5.73324C1.32519 6.19299 0.877819 6.75955 0.55743 7.39822C0.23704 8.03689 0.0503768 8.73424 0.00886778 9.44756C-0.0326412 10.1609 0.0718777 10.8752 0.316025 11.5467C0.560173 12.2182 0.938812 12.8328 1.42876 13.3529C1.91871 13.873 2.50965 14.2877 3.16542 14.5714C3.82118 14.8552 4.52796 15.0021 5.24249 15.0032H19.4943C20.6361 15.0045 21.7357 14.5718 22.5704 13.7927C23.4051 13.0136 23.9124 11.9463 23.9897 10.8071C24.0669 9.66794 23.7083 8.54198 22.9864 7.65732C22.2645 6.77266 21.2334 6.19545 20.1019 6.04261ZM12.7434 1.50154C14.2196 1.50123 15.644 2.04501 16.7444 3.0289C17.8448 4.01279 18.544 5.36775 18.7082 6.83471C18.7286 7.01902 18.8165 7.18925 18.955 7.31253C19.0936 7.43582 19.2728 7.50342 19.4583 7.50229H19.4943C20.29 7.50229 21.0532 7.8184 21.6159 8.38108C22.1785 8.94376 22.4947 9.70692 22.4947 10.5027C22.4947 11.2984 22.1785 12.0616 21.6159 12.6243C21.0532 13.1869 20.29 13.503 19.4943 13.503H5.24249C4.71153 13.5028 4.18668 13.3898 3.70266 13.1715C3.21864 12.9533 2.78647 12.6347 2.43476 12.237C2.08304 11.8392 1.81979 11.3713 1.66241 10.8642C1.50504 10.3571 1.45713 9.82238 1.52185 9.29539C1.58658 8.76839 1.76246 8.26114 2.03787 7.8072C2.31327 7.35326 2.68193 6.96296 3.11944 6.66214C3.55696 6.36132 4.05336 6.15682 4.57581 6.06217C5.09827 5.96753 5.63486 5.98489 6.1501 6.11312C6.33392 6.15897 6.52827 6.13356 6.69413 6.04201C6.85999 5.95045 6.98505 5.79953 7.04421 5.61956C7.44029 4.42092 8.20428 3.37772 9.2275 2.63838C10.2507 1.89904 11.4811 1.50123 12.7434 1.50154Z" fill="#384744"/>
</svg>
